<svg width="146" height="72" viewBox="0 0 146 72" fill="none" xmlns="http://www.w3.org/2000/svg">
<path fill-rule="evenodd" clip-rule="evenodd" d="M96.1704 7.78614C101.154 7.78614 103.934 10.7781 103.998 16.2105C104.061 21.5547 102.842 26.3121 100.375 30.3502C97.9542 34.315 94.8593 36.704 92.6896 38.0099C89.2144 40.1014 85.7412 40.5407 83.4394 40.5407H83.4389C82.7014 40.5407 82.1116 40.4943 81.7182 40.4506C80.6079 41.6455 79.3998 42.611 78.1208 43.3227C77.1756 43.8488 76.5183 44.7658 76.2931 45.8201C77.5674 46.2167 78.4953 47.4074 78.4953 48.8108C78.4953 50.2455 77.5249 51.4572 76.2064 51.8261V55.8152H81.3492V59.9783H86.4242V68H57.5766V59.9783H62.6516V55.8152H67.7943V51.8261C66.4759 51.4573 65.5056 50.2455 65.5056 48.8108C65.5056 47.4075 66.4334 46.2167 67.7078 45.8201C67.4826 44.7658 66.8252 43.8486 65.8801 43.3227C64.5979 42.6091 63.3981 41.6489 62.2851 40.4501L62.2436 40.4549L62.2277 40.4567L62.2071 40.4591L62.1867 40.4613C61.6753 40.514 61.1286 40.5408 60.5611 40.5408C58.2591 40.5408 54.7857 40.1017 51.3103 38.01C49.1404 36.7043 46.0457 34.3151 43.6244 30.3504C41.1583 26.3121 39.9396 21.5548 40.0023 16.2105C40.0661 10.778 42.8459 7.78614 47.8297 7.78614C49.7606 7.78614 51.6211 8.23606 52.8361 8.61098C52.7137 6.37525 52.7104 4.98298 52.7104 4.95047V4H91.2906L91.2904 4.9506C91.2904 5.01873 91.2886 6.38937 91.1676 8.60985C92.3827 8.23519 94.2414 7.78614 96.1704 7.78614ZM89.3313 7.19721C89.3521 6.68565 89.3656 6.24861 89.3741 5.90095H54.6283C54.6376 6.24811 54.6519 6.68578 54.6734 7.19721H89.3313ZM90.6668 14.6285C91.9546 14.1998 93.6236 13.7675 95.1187 13.7675C96.3723 13.7675 97.2749 14.0738 97.8016 14.6779C98.4068 15.3722 98.6019 16.5385 98.3812 18.145C97.4621 24.8364 94.5609 30.0597 90.2119 32.8524C88.6971 33.8252 87.0656 34.2271 85.6983 34.3699C88.5904 28.2904 89.9902 20.6626 90.6668 14.6285ZM58.1486 34.0491C56.5376 30.5709 55.2468 26.2644 54.3119 21.2495C53.8814 18.9403 53.5668 16.6877 53.3367 14.6297C52.0484 14.2008 50.3779 13.7679 48.8816 13.7679C47.6281 13.7679 46.7253 14.074 46.1987 14.6781C45.5933 15.3722 45.3983 16.5387 45.6189 18.1452C46.5381 24.8367 49.4393 30.0598 53.7882 32.8526C55.3024 33.825 56.9329 34.2268 58.2997 34.3699L58.2797 34.3278C58.2358 34.2354 58.1918 34.1429 58.1486 34.0491ZM60.5611 38.6398C58.5001 38.6398 55.3919 38.2479 52.2906 36.3814C49.1187 34.4724 41.7568 28.6876 41.9031 16.2329C41.9548 11.8283 43.8934 9.68721 47.8297 9.68721C49.9348 9.68721 52.0139 10.3219 52.9643 10.6567C53.0117 11.2944 53.0648 11.9339 53.1236 12.5709C51.8317 12.1913 50.3096 11.8666 48.8816 11.8666C47.0543 11.8666 45.6697 12.392 44.7659 13.4284C43.7836 14.5551 43.4369 16.229 43.7357 18.4036C44.2474 22.1291 45.3169 25.422 46.9146 28.1905C48.4397 30.8335 50.4068 32.9402 52.7611 34.4519C55.0606 35.9287 57.5477 36.3011 59.3218 36.3367L59.3318 36.3537L59.3399 36.3676C59.4372 36.538 59.5354 36.7055 59.6347 36.8709C59.6656 36.9225 59.6967 36.9738 59.7278 37.0249C59.8224 37.1804 59.9178 37.3344 60.0142 37.4853C60.037 37.5211 60.06 37.5563 60.0831 37.5915L60.1237 37.6537C60.1893 37.7546 60.2553 37.8546 60.3218 37.9535C60.3861 38.0491 60.4506 38.1438 60.5154 38.2374C60.5791 38.3291 60.6428 38.4202 60.7071 38.5101C60.7205 38.5289 60.7339 38.5482 60.7472 38.5673L60.7477 38.568C60.764 38.5915 60.7804 38.6151 60.7969 38.638C60.7204 38.6392 60.6418 38.6398 60.5611 38.6398ZM84.5236 66.0991V61.8795H81.3493H62.6517H59.4776V66.0991H84.5236ZM76.2067 57.7164H79.4484V59.9784H64.5526V57.7164H67.7944H76.2067ZM69.6952 51.9422V55.8154H74.3058V51.9422H69.6952ZM76.5947 48.8108C76.5947 49.4892 76.0427 50.0411 75.3644 50.0411H68.6367C67.9583 50.0411 67.4064 49.4892 67.4064 48.8108C67.4064 48.1323 67.9583 47.5804 68.6367 47.5804H75.3644C76.0428 47.5804 76.5947 48.1323 76.5947 48.8108ZM81.3174 37.985L81.3489 37.9441C82.0308 37.0564 82.6791 36.0481 83.2834 34.9335L83.5551 34.4326C86.6309 28.491 88.0896 20.6031 88.7802 14.4115L88.8423 13.8266C88.9449 12.8595 89.0349 11.8808 89.1109 10.9057L89.1129 10.8786C89.1368 10.5709 89.1593 10.2635 89.1803 9.95699L89.1831 9.91724C89.2023 9.63433 89.2197 9.36193 89.2356 9.09815H54.7724C55.1452 15.1617 56.3814 26.5767 60.4686 34.4747L60.7172 34.9336C61.5288 36.4309 62.4196 37.7367 63.3646 38.8146L63.5971 39.0799C64.5594 40.1281 65.6247 41.0053 66.8042 41.6615C68.3106 42.4996 69.3348 43.988 69.6167 45.6793H74.3844C74.6662 43.9881 75.6904 42.4996 77.1968 41.6615C78.4189 40.9815 79.5759 40.0237 80.6358 38.8145L80.6418 38.8075L80.6508 38.797C80.7563 38.6762 80.8613 38.5525 80.9654 38.4259L80.9877 38.3988L81.0048 38.3775L81.0349 38.3404C81.1297 38.224 81.2239 38.106 81.3174 37.985ZM91.7097 36.3814C88.6081 38.248 85.5006 38.6398 83.4397 38.6398H83.4392C83.3583 38.6398 83.2797 38.6392 83.2031 38.638L83.2068 38.6326C83.3302 38.4623 83.4517 38.2896 83.5713 38.1144L83.5918 38.0841L83.6149 38.0498C83.7161 37.9008 83.8157 37.7497 83.9142 37.5972L83.9529 37.5373L83.9901 37.4795C84.0991 37.3083 84.2069 37.1361 84.3127 36.9608L84.3259 36.9387L84.3415 36.9122L84.3619 36.8777C84.4486 36.7329 84.5342 36.5868 84.6187 36.4392C84.6285 36.4221 84.6384 36.4054 84.6484 36.3886C84.6585 36.3716 84.6687 36.3545 84.6787 36.337C86.4528 36.3013 88.9399 35.9289 91.2394 34.4522C93.5937 32.9402 95.5608 30.8335 97.0859 28.1908C98.6834 25.4222 99.7529 22.1294 100.265 18.4039C100.563 16.2291 100.217 14.5552 99.2346 13.4286C98.3309 12.3921 96.9462 11.8667 95.1189 11.8667C93.6911 11.8667 92.1687 12.1912 90.8769 12.5709C90.9368 11.9214 90.9882 11.2985 91.0322 10.7064L91.0361 10.6569C91.9867 10.322 94.0657 9.68746 96.1707 9.68746C100.107 9.68746 102.046 11.8286 102.097 16.2329C102.243 28.6876 94.8816 34.4723 91.7097 36.3814ZM95.4569 43.7885L95.4583 45.6896L93.8536 45.6906L93.8547 47.2954L91.9538 47.2966L91.9527 45.6919L90.3481 45.6931L90.3468 43.792L91.9514 43.7909L91.9503 42.186L93.8512 42.1847L93.8523 43.7895L95.4569 43.7885ZM54.0982 55.5613L54.0962 53.6603L52.7497 53.6616L52.7483 52.3149L50.8474 52.3169L50.8488 53.6635L49.5021 53.6649L49.5042 55.566L50.8507 55.5646L50.8521 56.9115L52.7529 56.9095L52.7516 55.5627L54.0982 55.5613ZM47.8988 40.0205H46.1057V41.9216H47.8988V40.0205ZM57.6299 45.6451H59.4231V47.5461H57.6299V45.6451ZM88.3249 51.3647H86.5318V53.2657H88.3249V51.3647Z" fill="white"/>
<path fill-rule="evenodd" clip-rule="evenodd" d="M13.9469 6.29959C13.7333 7.66925 13.6664 9.05811 13.7471 10.4422C13.7471 10.4422 16.0349 9.20245 16.7842 8.92023C19.1119 7.93243 21.2399 4.98929 22.5486 3.08429C23.0723 2.10138 23.4973 1.06818 23.8174 0C22.5082 0.0530701 21.2085 0.249084 19.9411 0.584595C17.6633 1.55222 14.7861 4.0015 13.9469 6.29959ZM12.9379 6.43066C13.0011 8.08026 12.9276 9.7323 12.7181 11.3695C12.4983 12.3573 10.0007 15.6734 10.0007 15.6734C10.0007 15.6734 8.61208 11.7727 9.30142 9.81732C9.93358 8.18478 11.2745 6.93604 12.9379 6.43066ZM9.31139 17.6186C9.06163 18.4854 7.96269 21.5697 7.96269 21.5697C7.96269 21.5697 4.84571 18.6165 5.61496 16.2579C6.28945 14.8232 7.16786 13.4956 8.22244 12.3169C8.22244 12.3169 9.74097 16.137 9.31139 17.6186ZM6.91373 21.8016C7.3533 23.2228 5.81479 28.6657 5.81479 28.6657C5.81479 28.6657 2.86764 25.3294 2.73776 24.1098C2.67786 22.1628 3.33648 20.2628 4.58598 18.7778C5.4928 19.6759 6.27574 20.6929 6.91373 21.8016ZM5.14545 36.2454C5.14545 36.2454 5.45515 31.0142 4.80578 29.6938C4.35622 28.7766 1.48899 26.3777 1.48899 26.3777C0.397343 28.0386 0.00888349 30.0708 0.410033 32.0221C0.689762 33.3929 5.14545 36.2454 5.14545 36.2454ZM10.6601 32.0926C10.2505 33.3424 6.25434 35.9731 6.25434 35.9731C6.25434 35.9731 6.04455 31.9212 6.43417 30.8125C7.09353 28.9176 10.8799 27.3855 10.8799 27.3855C11.0602 28.9561 10.9859 30.546 10.6601 32.0926ZM10.8699 39.2994C9.74939 41.088 8.51113 42.7986 7.16345 44.4197C7.16345 44.4197 6.21437 39.0172 7.04356 37.5557C7.68294 36.4167 11.1396 34.4714 11.1396 34.4714C11.1396 34.4714 11.4193 38.1201 10.8699 39.2994ZM12.8779 46.8792C12.6382 48.1895 10.2904 52.1708 10.2904 52.1708C10.2904 52.1708 7.79283 47.0908 8.21243 45.4177C8.53212 44.1476 11.6291 41.2549 11.6291 41.2549C11.6291 41.2549 13.1177 45.5688 12.8779 46.8792ZM14.0568 49.5198C14.0568 49.5198 11.3894 52.6041 11.3095 53.5515C11.1896 55.0231 14.6163 59.458 14.6163 59.458C14.6163 59.458 15.3655 55.0231 15.3655 54.0152C15.1205 52.4667 14.6807 50.956 14.0568 49.5198ZM19.2318 64.6389C19.2318 64.6389 15.5553 61.3832 15.2356 60.3753C14.9159 59.3674 15.9849 55.8396 15.9849 55.8396C15.9849 55.8396 19.3616 58.1578 19.6713 59.1154C20.0909 60.3249 19.2318 64.6389 19.2318 64.6389ZM14.8161 67.0479C16.5806 66.477 18.465 66.3969 20.2708 66.8161C21.2699 67.0176 24.9063 70.485 24.9063 70.485C23.9648 71.0919 22.9596 71.5922 21.9092 71.9767C20.3294 72.1014 18.7504 71.7244 17.3936 70.8982C16.2664 69.8198 15.3867 68.5056 14.8161 67.0479ZM20.1809 65.3544C19.7313 64.2759 20.7304 60.7683 20.7304 60.7683C20.7304 60.7683 25.2061 63.1571 25.8354 64.4573C26.4648 65.7576 25.0862 69.9405 25.0862 69.9405C25.0862 69.9405 20.8203 66.8159 20.1809 65.3544ZM7.41321 60.6072C7.41321 60.6072 12.778 60.6072 14.2866 61.2825C15.5753 61.8469 19.1319 65.6771 19.1319 65.6771C19.1319 65.6771 14.2066 66.2415 12.9079 65.8182C11.1196 65.2235 7.41321 60.6072 7.41321 60.6072ZM3.96655 53.6323C3.96655 53.6323 8.85183 53.9851 10.0906 54.8419C11.0897 55.5071 13.4973 59.6295 13.4973 59.6295C13.4973 59.6295 9.15154 59.9218 8.13252 59.428C6.52408 58.6619 3.96655 53.6323 3.96655 53.6323ZM1.08936 44.6919C1.08936 44.6919 5.08549 45.9216 6.08453 46.7078C7.41324 47.8366 9.88085 53.2694 9.88085 53.2694C9.88085 53.2694 4.88568 52.5437 3.75678 51.6164C2.27821 50.4573 1.08936 44.6919 1.08936 44.6919ZM0.000399446 35.2878C0.000399446 35.2878 3.78674 36.9509 4.57597 37.8682C5.57501 39.0273 6.28432 45.0144 6.28432 45.0144C4.54384 44.3731 2.87061 43.5594 1.28915 42.5853C-0.0595425 41.6782 0.000399446 35.2878 0.000399446 35.2878ZM6.9137 28.1618C6.9137 28.1618 11.0697 26.146 11.739 25.138C12.1866 23.9986 12.4888 22.8064 12.6382 21.5901C12.6382 21.5901 8.57209 22.4468 7.95269 23.9184C7.52658 25.3118 7.17968 26.7285 6.9137 28.1618ZM8.72198 21.3582C8.72198 21.3582 12.7181 20.2092 13.5273 19.5641C14.3366 18.919 15.945 15.5324 15.945 15.5324C14.8771 15.0127 13.6688 14.8639 12.5083 15.109C11.2507 15.4956 10.7013 16.5406 10.2754 17.3506C10.1905 17.5122 10.1105 17.6645 10.0307 17.8002C9.55118 18.6166 8.72198 21.3582 8.72198 21.3582ZM13.5173 11.7423C14.5163 9.97842 16.894 9.33334 18.2228 9.14185C18.6952 9.11288 19.1689 9.11288 19.6414 9.14185C19.6414 9.14185 18.1828 12.8107 17.1838 13.5969C16.1847 14.3831 11.6491 14.9879 11.6491 14.9879C11.6491 14.9879 13.0977 12.4579 13.5173 11.7423Z" fill="white"/>
<path fill-rule="evenodd" clip-rule="evenodd" d="M132.053 6.29959C132.267 7.66925 132.334 9.05811 132.253 10.4422C132.253 10.4422 129.965 9.20245 129.216 8.92023C126.888 7.93243 124.76 4.98929 123.451 3.08429C122.928 2.10138 122.503 1.06818 122.183 0C123.492 0.0530701 124.792 0.249084 126.059 0.584595C128.337 1.55222 131.214 4.0015 132.053 6.29959ZM133.062 6.43066C132.999 8.08026 133.072 9.7323 133.282 11.3695C133.502 12.3573 135.999 15.6734 135.999 15.6734C135.999 15.6734 137.388 11.7727 136.699 9.81732C136.066 8.18478 134.726 6.93604 133.062 6.43066ZM136.689 17.6186C136.938 18.4854 138.037 21.5697 138.037 21.5697C138.037 21.5697 141.154 18.6165 140.385 16.2579C139.711 14.8232 138.832 13.4956 137.778 12.3169C137.778 12.3169 136.259 16.137 136.689 17.6186ZM139.086 21.8016C138.647 23.2228 140.185 28.6657 140.185 28.6657C140.185 28.6657 143.132 25.3294 143.262 24.1098C143.322 22.1628 142.664 20.2628 141.414 18.7778C140.507 19.6759 139.724 20.6929 139.086 21.8016ZM140.855 36.2454C140.855 36.2454 140.545 31.0142 141.194 29.6938C141.644 28.7766 144.511 26.3777 144.511 26.3777C145.603 28.0386 145.991 30.0708 145.59 32.0221C145.31 33.3929 140.855 36.2454 140.855 36.2454ZM135.34 32.0926C135.75 33.3424 139.746 35.9731 139.746 35.9731C139.746 35.9731 139.955 31.9212 139.566 30.8125C138.906 28.9176 135.12 27.3855 135.12 27.3855C134.94 28.9561 135.014 30.546 135.34 32.0926ZM135.13 39.2994C136.251 41.088 137.489 42.7986 138.837 44.4197C138.837 44.4197 139.786 39.0172 138.956 37.5557C138.317 36.4167 134.86 34.4714 134.86 34.4714C134.86 34.4714 134.581 38.1201 135.13 39.2994ZM133.122 46.8792C133.362 48.1895 135.71 52.1708 135.71 52.1708C135.71 52.1708 138.207 47.0908 137.788 45.4177C137.468 44.1476 134.371 41.2549 134.371 41.2549C134.371 41.2549 132.882 45.5688 133.122 46.8792ZM131.943 49.5198C131.943 49.5198 134.611 52.6041 134.691 53.5515C134.81 55.0231 131.384 59.458 131.384 59.458C131.384 59.458 130.634 55.0231 130.634 54.0152C130.88 52.4667 131.319 50.956 131.943 49.5198ZM126.768 64.6389C126.768 64.6389 130.445 61.3832 130.764 60.3753C131.084 59.3674 130.015 55.8396 130.015 55.8396C130.015 55.8396 126.638 58.1578 126.329 59.1154C125.909 60.3249 126.768 64.6389 126.768 64.6389ZM131.184 67.0479C129.419 66.477 127.535 66.3969 125.729 66.8161C124.73 67.0176 121.094 70.485 121.094 70.485C122.035 71.0919 123.04 71.5922 124.091 71.9767C125.671 72.1014 127.25 71.7244 128.606 70.8982C129.734 69.8198 130.613 68.5056 131.184 67.0479ZM125.819 65.3544C126.269 64.2759 125.27 60.7683 125.27 60.7683C125.27 60.7683 120.794 63.1571 120.165 64.4573C119.535 65.7576 120.914 69.9405 120.914 69.9405C120.914 69.9405 125.18 66.8159 125.819 65.3544ZM138.587 60.6072C138.587 60.6072 133.222 60.6072 131.713 61.2825C130.425 61.8469 126.868 65.6771 126.868 65.6771C126.868 65.6771 131.793 66.2415 133.092 65.8182C134.88 65.2235 138.587 60.6072 138.587 60.6072ZM142.033 53.6323C142.033 53.6323 137.148 53.9851 135.909 54.8419C134.91 55.5071 132.503 59.6295 132.503 59.6295C132.503 59.6295 136.848 59.9218 137.867 59.428C139.476 58.6619 142.033 53.6323 142.033 53.6323ZM144.911 44.6919C144.911 44.6919 140.915 45.9216 139.915 46.7078C138.587 47.8366 136.119 53.2694 136.119 53.2694C136.119 53.2694 141.114 52.5437 142.243 51.6164C143.722 50.4573 144.911 44.6919 144.911 44.6919ZM146 35.2878C146 35.2878 142.213 36.9509 141.424 37.8682C140.425 39.0273 139.716 45.0144 139.716 45.0144C141.456 44.3731 143.129 43.5594 144.711 42.5853C146.06 41.6782 146 35.2878 146 35.2878ZM139.086 28.1618C139.086 28.1618 134.93 26.146 134.261 25.138C133.813 23.9986 133.511 22.8064 133.362 21.5901C133.362 21.5901 137.428 22.4468 138.047 23.9184C138.473 25.3118 138.82 26.7285 139.086 28.1618ZM137.278 21.3582C137.278 21.3582 133.282 20.2092 132.473 19.5641C131.663 18.919 130.055 15.5324 130.055 15.5324C131.123 15.0127 132.331 14.8639 133.492 15.109C134.749 15.4956 135.299 16.5406 135.725 17.3506C135.81 17.5122 135.89 17.6645 135.969 17.8002C136.449 18.6166 137.278 21.3582 137.278 21.3582ZM132.483 11.7423C131.484 9.97842 129.106 9.33334 127.777 9.14185C127.305 9.11288 126.831 9.11288 126.359 9.14185C126.359 9.14185 127.817 12.8107 128.816 13.5969C129.815 14.3831 134.351 14.9879 134.351 14.9879C134.351 14.9879 132.902 12.4579 132.483 11.7423Z" fill="white"/>
</svg>
