<svg width="80" height="80" viewBox="0 0 80 80" fill="none" xmlns="http://www.w3.org/2000/svg">
<path fill-rule="evenodd" clip-rule="evenodd" d="M40 0C17.9439 0 0 17.9439 0 40C0 62.0561 17.9439 80 40 80C62.0561 80 80 62.0561 80 40C80 17.9439 62.0561 0 40 0ZM64.3159 64.0619C64.2494 64.1624 64.1633 64.2486 64.0627 64.315C57.6665 70.6686 49.0155 74.2321 40 74.2268C21.1272 74.2268 5.7732 58.8728 5.7732 40C5.76793 30.9849 9.33109 22.3343 15.6841 15.9381C15.7186 15.889 15.7566 15.8424 15.7979 15.7988C15.8416 15.7575 15.8882 15.7194 15.9373 15.6847C22.3336 9.33136 30.9846 5.76796 40 5.7732C58.8728 5.7732 74.2268 21.1272 74.2268 40C74.2321 49.0151 70.6689 57.6657 64.3159 64.0619ZM45.7622 28.2394H49.981C52.7628 28.2394 54.2325 29.8237 54.2325 32.8204V42.5524C54.2325 45.5497 52.7622 47.134 49.981 47.134H45.7622V28.2394ZM34.9981 41.8233H27.8847L31.4732 29.8831L34.9981 41.8233ZM18.4511 16.701C24.308 11.2617 32.0069 8.24144 40 8.24742C57.5084 8.24742 71.7525 22.4915 71.7525 40C71.7584 47.993 68.7381 55.6919 63.2989 61.5489L52.854 51.1051C52.622 50.8731 52.3073 50.7428 51.9792 50.7427C51.6511 50.7427 51.3364 50.873 51.1044 51.105C50.8724 51.337 50.742 51.6517 50.742 51.9798C50.742 52.3079 50.8723 52.6226 51.1043 52.8546L61.5488 63.299C55.692 68.7382 47.993 71.7585 40 71.7526C22.4915 71.7526 8.24739 57.5084 8.24739 40C8.24154 32.007 11.2618 24.3081 16.701 18.4511L26.7389 28.4876C26.8532 28.6051 26.9897 28.6986 27.1405 28.7629C27.2912 28.8272 27.4532 28.8608 27.6171 28.8619C27.781 28.8631 27.9434 28.8316 28.095 28.7694C28.2466 28.7072 28.3844 28.6155 28.5003 28.4997C28.6162 28.3838 28.7079 28.2461 28.7701 28.0945C28.8323 27.9429 28.8637 27.7804 28.8626 27.6165C28.8615 27.4527 28.8279 27.2906 28.7636 27.1399C28.6994 26.9891 28.6059 26.8526 28.4884 26.7383L18.4511 16.701ZM37.1488 49.1487C37.2837 49.5866 37.6905 49.8482 38.2371 49.8482C39.0781 49.8482 40.0558 49.2843 40.0558 48.5575C40.0546 48.5187 40.049 48.4802 40.0391 48.4427C40.0291 48.4048 40.0236 48.3658 40.0226 48.3266V48.3111L33.2884 26.3573C33.0635 25.6466 32.2152 25.3284 31.474 25.3284C30.7459 25.3284 29.8864 25.599 29.6596 26.3581L22.9303 48.2944L22.9109 48.3499C22.8788 48.4262 22.8612 48.5079 22.8591 48.5907C22.8591 49.3697 23.8991 49.8484 24.6447 49.8484C25.2204 49.8484 25.629 49.5932 25.7662 49.1474L27.1958 44.3058H35.7187L37.1488 49.1487ZM49.981 49.8482C54.6426 49.8482 57.2099 47.2573 57.2099 42.5532V32.821C57.2099 28.1167 54.6426 25.526 49.981 25.526H44.1416C43.2923 25.526 42.7849 26.0647 42.7849 26.5858V48.7884C42.7849 49.3093 43.2923 49.8482 44.1416 49.8482H49.981Z" fill="#0011AA"/>
</svg>
