<svg width="80" height="80" viewBox="0 0 80 80" fill="none" xmlns="http://www.w3.org/2000/svg">
<circle cx="40" cy="40" r="40" fill="#0011AA"/>
<path fill-rule="evenodd" clip-rule="evenodd" d="M63 55.3648C63 56.671 61.9371 57.7339 60.6309 57.7339H19.3691C18.0629 57.7339 17 56.671 17 55.3648V24.3691C17 23.0629 18.0629 22 19.3691 22H60.6309C61.9371 22 63 23.0629 63 24.3691V55.3648ZM24.7982 26.8377C24.7982 26.4018 24.4452 26.048 24.0085 26.048H21.5407C21.104 26.048 20.751 26.4018 20.751 26.8377C20.751 27.2736 21.104 27.6274 21.5407 27.6274H24.0085C24.4452 27.6274 24.7982 27.2736 24.7982 26.8377ZM30.3264 27.6274H27.8585C27.4218 27.6274 27.0688 27.2736 27.0688 26.8377C27.0688 26.4018 27.4218 26.048 27.8585 26.048H30.3264C30.7631 26.048 31.1161 26.4018 31.1161 26.8377C31.1161 27.2736 30.7631 27.6274 30.3264 27.6274ZM57.4722 31.6747H22.528C22.0929 31.6747 21.7383 32.0293 21.7383 32.4644V52.6017C21.7383 53.0376 22.0929 53.3914 22.528 53.3914H57.4722C57.9073 53.3914 58.2619 53.0376 58.2619 52.6017V32.4644C58.2619 32.0293 57.9073 31.6747 57.4722 31.6747ZM44.442 26.048H59.0515C59.4882 26.048 59.8412 26.4018 59.8412 26.8377C59.8412 27.2736 59.4882 27.6274 59.0515 27.6274H44.442C44.0053 27.6274 43.6523 27.2736 43.6523 26.8377C43.6523 26.4018 44.0053 26.048 44.442 26.048Z" fill="white"/>
</svg>
