<svg width="80" height="80" viewBox="0 0 80 80" fill="none" xmlns="http://www.w3.org/2000/svg">
<path fill-rule="evenodd" clip-rule="evenodd" d="M44.5083 15.6418H11.6186C10.3321 15.6418 9.28928 16.6848 9.28928 17.9711V25.7347H6.7625C5.37144 25.7347 4.29053 26.946 4.4482 28.3279L9.04894 68.663C9.18314 69.8396 10.179 70.7285 11.3632 70.7285H68.637C69.8213 70.7285 70.8171 69.8396 70.9513 68.663L75.5521 28.3279C75.7097 26.946 74.6288 25.7347 73.2378 25.7347H70.713V11.6008C70.713 10.3144 69.6701 9.27148 68.3837 9.27148H49.1669C47.8805 9.27148 46.8376 10.3144 46.8376 11.6008V13.3125C46.8376 14.5989 45.7948 15.6418 44.5083 15.6418ZM14.2223 22.3333V25.7347H65.7779V22.3333C65.7779 21.781 65.3302 21.3333 64.7779 21.3333H15.2223C14.67 21.3333 14.2223 21.781 14.2223 22.3333ZM26.4889 48.232C26.4889 55.694 32.5381 61.7432 40.0001 61.7432C47.4621 61.7432 53.5113 55.694 53.5113 48.232C53.5113 40.7699 47.4621 34.7208 40.0001 34.7208C32.5381 34.7208 26.4889 40.7699 26.4889 48.232ZM45.0329 45.2096C44.7372 42.9413 42.8595 41.1057 40.5859 40.8545C37.517 40.5155 34.9245 42.9045 34.9245 45.894C34.9245 47.9268 36.1163 49.6729 37.8438 50.4764V54.6248C37.8438 55.8162 38.8097 56.7819 40.0011 56.7819C41.1924 56.7819 42.1583 55.8162 42.1583 54.6248V50.4858C44.0771 49.5928 45.3349 47.5264 45.0329 45.2096Z" fill="#0011AA"/>
</svg>
