<svg width="728" height="728" viewBox="0 0 728 728" fill="none" xmlns="http://www.w3.org/2000/svg">
<circle opacity="0.05" cx="381" cy="347" r="347" fill="white"/>
<path opacity="0.1" d="M31.2779 563.587L315.295 726.156C318.522 728.021 323.094 728.021 325.784 726.689L495.226 629.68C497.915 628.081 497.646 625.416 494.419 623.551L210.402 460.982C207.175 459.117 202.602 459.117 199.913 460.449L30.471 557.457C27.7814 559.056 28.3194 561.721 31.2779 563.587Z" fill="#24126A"/>
<path d="M205.677 391.493L245.751 155.369L242.524 154.037L247.365 151.371C248.441 150.838 249.517 150.838 251.131 151.638L572.263 335.261C574.953 336.86 576.835 340.591 576.297 343.256L535.685 581.246C535.416 582.578 534.878 583.378 534.072 583.644L529.23 586.309L528.423 582.045H528.692L209.711 399.489C207.291 398.156 205.408 394.158 205.677 391.493Z" fill="url(#paint0_linear)"/>
<path d="M570.649 341.657L576.028 339.258C576.566 340.591 576.835 341.923 576.835 343.256L536.223 581.246C535.954 582.578 535.416 583.378 534.609 583.644L529.768 586.309L528.961 582.045H529.23L513.093 572.717L570.649 341.657Z" fill="url(#paint1_linear)"/>
<path d="M204.261 402.344L525.394 585.967C527.815 587.299 529.966 586.5 530.504 584.101L571.117 346.111C571.654 343.446 569.503 339.448 567.082 338.116L245.681 154.493C243.26 153.161 241.108 153.96 240.57 156.359L199.958 394.349C199.689 397.014 201.572 401.011 204.261 402.344Z" fill="white"/>
<path d="M243.011 165.887C243.593 162.462 247.406 160.66 250.422 162.385L563.655 341.521C565.477 342.562 566.454 344.631 566.102 346.699L527.275 574.99C526.693 578.416 522.88 580.217 519.864 578.492L206.631 399.357C204.809 398.315 203.832 396.247 204.184 394.178L243.011 165.887Z" fill="#0011AA"/>
<path d="M0.150879 513.154L17.633 522.215L193.261 421.742C196.219 420.143 201.329 420.143 204.826 422.275L507.939 595.504C510.897 593.905 524.076 587.509 524.076 587.509L517.621 597.903C517.352 598.702 516.814 599.235 515.738 599.768L330.697 705.571C327.738 707.17 322.628 707.17 319.132 705.038L9.02637 527.545C7.6816 526.745 6.87473 525.679 6.33682 524.88L0.150879 513.154Z" fill="url(#paint2_linear)"/>
<path d="M2.84082 516.085L320.477 697.842C323.973 699.708 329.084 699.974 332.311 698.375L521.925 589.907C524.883 588.308 524.614 585.11 521.118 583.244L203.481 401.487C199.985 399.622 194.875 399.355 191.647 400.954L2.03399 509.422C-0.92452 511.021 -0.655597 513.953 2.84082 516.085Z" fill="#E7E9F9"/>
<path d="M2.83933 514.752L320.476 696.509C323.972 698.375 329.082 698.641 332.31 697.042L521.923 588.308C522.999 587.775 523.537 586.975 523.806 586.176C524.075 587.508 523.537 588.841 521.923 589.907L332.31 698.375C329.351 699.974 323.972 699.974 320.476 697.842L2.83933 516.084C0.687684 514.752 -0.388137 513.153 0.149773 511.554C0.418729 512.62 1.22559 513.686 2.83933 514.752Z" fill="#CDD1F2"/>
<g opacity="0.15">
<g opacity="0.4">
<mask id="mask0" mask-type="alpha" maskUnits="userSpaceOnUse" x="199" y="153" width="365" height="425">
<path d="M240.546 153.851L563.024 338.273L522.411 577.062L199.934 392.64L240.546 153.851Z" fill="#0011AA"/>
</mask>
<g mask="url(#mask0)">
<path d="M202.597 398.088L220.079 407.149L395.707 306.676C398.665 305.077 403.775 305.077 407.272 307.209L710.384 480.438C713.343 478.839 726.522 472.443 726.522 472.443L720.067 482.837C719.798 483.636 719.26 484.169 718.184 484.702L533.143 590.505C530.184 592.104 525.074 592.104 521.578 589.972L211.472 412.479C210.127 411.68 209.321 410.614 208.783 409.814L202.597 398.088Z" fill="url(#paint3_linear)"/>
<path d="M205.287 400.757L522.923 582.514C526.42 584.379 531.53 584.646 534.757 583.047L724.371 474.579C727.329 472.98 727.06 469.782 723.564 467.916L405.659 286.159C402.162 284.294 397.052 284.027 393.825 285.626L204.211 394.094C201.253 395.693 201.791 398.891 205.287 400.757Z" fill="url(#paint4_linear)"/>
<path opacity="0.15" d="M723.559 467.913L405.654 286.155C403.502 284.823 400.544 284.29 397.854 284.556C399.737 284.823 401.888 285.356 403.233 286.155L720.869 467.913C724.366 469.778 724.635 472.976 721.676 474.575L532.063 583.043C530.987 583.576 529.642 584.109 528.297 584.109C530.718 584.376 532.87 583.843 534.483 583.043L724.097 474.575C727.324 472.976 727.055 469.778 723.559 467.913Z" fill="white"/>
</g>
<g opacity="0.5">
<path opacity="0.5" d="M371.769 369.571L361.549 363.708C360.742 363.175 359.397 363.175 358.591 363.708L347.295 370.371C346.488 370.904 346.219 371.703 347.295 372.236L357.515 378.099C358.322 378.632 359.666 378.632 360.473 378.099L371.769 371.437C372.307 370.904 372.576 370.104 371.769 369.571Z" fill="#24126A"/>
<path opacity="0.5" d="M387.37 378.633L377.15 372.77C376.343 372.237 374.998 372.237 374.191 372.77L362.895 379.432C362.088 379.965 361.819 380.765 362.895 381.298L373.115 387.161C373.922 387.694 375.267 387.694 376.074 387.161L387.37 380.498C388.177 379.699 388.177 378.899 387.37 378.633Z" fill="#24126A"/>
<path opacity="0.5" d="M403.236 387.427L393.016 381.564C392.209 381.031 390.864 381.031 390.057 381.564L378.761 388.227C377.954 388.76 377.685 389.559 378.761 390.092L388.981 395.955C389.788 396.488 391.133 396.488 391.94 395.955L403.236 389.293C403.774 388.76 404.043 387.96 403.236 387.427Z" fill="#24126A"/>
<path opacity="0.5" d="M391.133 399.419L380.913 393.556C380.106 393.023 378.761 393.023 377.955 393.556L368.541 399.152C367.734 399.685 367.465 400.485 368.541 401.018L378.761 406.881C379.568 407.414 380.913 407.414 381.72 406.881L391.133 401.284C391.94 400.751 391.94 399.952 391.133 399.419Z" fill="#24126A"/>
<path opacity="0.5" d="M407.003 408.481L396.783 402.618C395.976 402.085 394.631 402.085 393.824 402.618L384.411 408.215C383.604 408.748 383.335 409.547 384.411 410.081L394.631 415.944C395.438 416.477 396.783 416.477 397.59 415.944L407.003 410.347C407.541 409.814 407.81 409.014 407.003 408.481Z" fill="#24126A"/>
<path opacity="0.5" d="M422.601 417.542L412.38 411.679C411.573 411.146 410.229 411.146 409.422 411.679L400.008 417.275C399.202 417.808 398.933 418.608 400.008 419.141L410.229 425.004C411.036 425.537 412.38 425.537 413.187 425.004L422.601 419.407C423.408 418.874 423.408 418.075 422.601 417.542Z" fill="#24126A"/>
<path opacity="0.5" d="M438.47 426.603L428.249 420.74C427.443 420.207 426.098 420.207 425.291 420.74L415.878 426.337C415.071 426.87 414.802 427.669 415.878 428.202L426.098 434.065C426.905 434.598 428.249 434.598 429.056 434.065L438.47 428.469C439.008 427.669 439.277 426.87 438.47 426.603Z" fill="#24126A"/>
<path opacity="0.5" d="M454.07 435.398L443.85 429.535C443.043 429.002 441.698 429.002 440.892 429.535L431.478 435.131C430.671 435.664 430.402 436.464 431.478 436.997L441.698 442.86C442.505 443.393 443.85 443.393 444.657 442.86L454.07 437.263C454.877 436.73 454.877 435.931 454.07 435.398Z" fill="#24126A"/>
<path opacity="0.5" d="M469.937 444.461L459.717 438.598C458.91 438.065 457.565 438.065 456.758 438.598L447.345 444.194C446.538 444.727 446.269 445.527 447.345 446.06L457.565 451.923C458.372 452.456 459.717 452.456 460.524 451.923L469.937 446.326C470.475 445.793 470.744 444.994 469.937 444.461Z" fill="#24126A"/>
<path opacity="0.5" d="M485.538 453.52L475.318 447.657C474.511 447.124 473.166 447.124 472.359 447.657L462.946 453.253C462.139 453.786 461.87 454.586 462.946 455.119L473.166 460.982C473.973 461.515 475.318 461.515 476.125 460.982L485.538 455.385C486.345 454.852 486.345 454.053 485.538 453.52Z" fill="#24126A"/>
<path opacity="0.5" d="M501.136 462.581L490.916 456.718C490.109 456.185 488.764 456.185 487.957 456.718L478.544 462.315C477.737 462.848 477.468 463.647 478.544 464.18L488.764 470.043C489.571 470.576 490.915 470.576 491.722 470.043L501.136 464.447C501.943 463.647 502.212 462.848 501.136 462.581Z" fill="#24126A"/>
<path opacity="0.5" d="M517.005 471.377L506.785 465.514C505.978 464.981 504.633 464.981 503.826 465.514L494.413 471.111C493.606 471.644 493.337 472.443 494.413 472.976L504.633 478.839C505.44 479.372 506.785 479.372 507.591 478.839L517.005 473.243C517.812 472.71 517.812 471.91 517.005 471.377Z" fill="#24126A"/>
<path opacity="0.5" d="M532.604 480.437L522.383 474.574C521.576 474.041 520.232 474.041 519.425 474.574L510.011 480.171C509.204 480.704 508.936 481.503 510.011 482.036L520.232 487.899C521.038 488.432 522.383 488.432 523.19 487.899L532.604 482.303C533.41 481.77 533.679 480.97 532.604 480.437Z" fill="#24126A"/>
<path opacity="0.5" d="M384.677 412.479L374.457 406.616C373.65 406.083 372.305 406.083 371.498 406.616L362.085 412.213C361.278 412.746 361.009 413.545 362.085 414.078L372.305 419.942C373.112 420.475 374.457 420.475 375.264 419.942L384.677 414.345C385.484 413.545 385.484 412.746 384.677 412.479Z" fill="#24126A"/>
<path opacity="0.5" d="M368.54 403.152L358.32 397.289C357.513 396.756 356.168 396.756 355.361 397.289L345.948 402.885C345.141 403.418 344.872 404.218 345.948 404.751L356.168 410.614C356.975 411.147 358.32 411.147 359.127 410.614L368.54 405.017C369.347 404.484 369.347 403.685 368.54 403.152Z" fill="#24126A"/>
<path opacity="0.5" d="M352.67 394.09L330.616 381.564C329.809 381.031 328.464 381.031 327.657 381.564L318.244 387.161C317.437 387.694 317.168 388.493 318.244 389.026L340.298 401.552C341.105 402.085 342.45 402.085 343.257 401.552L352.67 395.955C353.477 395.422 353.477 394.623 352.67 394.09Z" fill="#24126A"/>
<path opacity="0.5" d="M334.113 399.953L316.362 389.826C315.555 389.293 314.21 389.293 313.403 389.826L303.99 395.422C303.183 395.955 302.914 396.755 303.99 397.288L321.741 407.415C322.548 407.948 323.892 407.948 324.699 407.415L334.113 401.819C334.92 401.286 334.92 400.486 334.113 399.953Z" fill="#24126A"/>
<path opacity="0.5" d="M400.277 421.274L390.057 415.411C389.25 414.878 387.905 414.878 387.099 415.411L377.685 421.008C376.878 421.541 376.609 422.34 377.685 422.873L387.905 428.736C388.712 429.269 390.057 429.269 390.864 428.736L400.277 423.14C401.084 422.607 401.084 421.807 400.277 421.274Z" fill="#24126A"/>
<path opacity="0.5" d="M416.144 430.334L405.924 424.471C405.117 423.938 403.772 423.938 402.965 424.471L393.552 430.068C392.745 430.601 392.476 431.4 393.552 431.933L403.772 437.797C404.579 438.33 405.924 438.33 406.731 437.797L416.144 432.2C416.951 431.667 416.951 430.867 416.144 430.334Z" fill="#24126A"/>
<path opacity="0.5" d="M431.745 439.396L421.525 433.533C420.718 433 419.373 433 418.566 433.533L409.153 439.129C408.346 439.662 408.077 440.462 409.153 440.995L419.373 446.858C420.18 447.391 421.525 447.391 422.332 446.858L431.745 441.261C432.552 440.728 432.552 439.929 431.745 439.396Z" fill="#24126A"/>
<path opacity="0.5" d="M447.614 448.459L437.394 442.595C436.587 442.062 435.242 442.062 434.435 442.595L425.022 448.192C424.215 448.725 423.946 449.525 425.022 450.058L435.242 455.921C436.049 456.454 437.394 456.454 438.2 455.921L447.614 450.324C448.421 449.525 448.421 448.725 447.614 448.459Z" fill="#24126A"/>
<path opacity="0.5" d="M463.212 457.252L452.992 451.389C452.185 450.856 450.841 450.856 450.034 451.389L440.62 456.985C439.813 457.518 439.544 458.318 440.62 458.851L450.841 464.714C451.647 465.247 452.992 465.247 453.799 464.714L463.212 459.117C464.019 458.584 464.019 457.785 463.212 457.252Z" fill="#24126A"/>
<path opacity="0.5" d="M479.084 466.313L468.864 460.45C468.057 459.917 466.712 459.917 465.905 460.45L456.492 466.047C455.685 466.58 455.416 467.379 456.492 467.912L466.712 473.775C467.519 474.308 468.864 474.308 469.671 473.775L479.084 468.179C479.622 467.646 479.891 466.846 479.084 466.313Z" fill="#24126A"/>
<path opacity="0.5" d="M494.679 475.374L484.459 469.511C483.652 468.978 482.307 468.978 481.5 469.511L472.087 475.107C471.28 475.64 471.011 476.44 472.087 476.973L482.307 482.836C483.114 483.369 484.459 483.369 485.266 482.836L494.679 477.239C495.486 476.706 495.486 475.907 494.679 475.374Z" fill="#24126A"/>
<path opacity="0.5" d="M510.549 484.435L500.329 478.572C499.522 478.039 498.177 478.039 497.37 478.572L487.957 484.169C487.15 484.702 486.881 485.501 487.957 486.034L498.177 491.898C498.984 492.431 500.329 492.431 501.135 491.898L510.549 486.301C511.087 485.501 511.356 484.702 510.549 484.435Z" fill="#24126A"/>
<path opacity="0.5" d="M526.149 493.23L515.929 487.367C515.122 486.834 513.777 486.834 512.97 487.367L503.557 492.963C502.75 493.496 502.481 494.296 503.557 494.829L513.777 500.692C514.584 501.225 515.929 501.225 516.736 500.692L526.149 495.095C526.956 494.562 526.956 493.763 526.149 493.23Z" fill="#24126A"/>
<path opacity="0.5" d="M554.119 509.219L531.795 496.427C530.988 495.894 529.644 495.894 528.837 496.427L519.423 502.024C518.617 502.557 518.348 503.356 519.423 503.889L541.747 516.681C542.554 517.214 543.898 517.214 544.705 516.681L554.119 511.085C554.926 510.552 554.926 509.752 554.119 509.219Z" fill="#24126A"/>
<path opacity="0.5" d="M525.341 526.01L506.514 515.35C505.707 514.817 504.362 514.817 503.555 515.35L494.142 520.947C493.335 521.48 493.066 522.279 494.142 522.812L512.969 533.472C513.775 534.006 515.12 534.006 515.927 533.472L525.341 527.876C526.147 527.343 526.147 526.543 525.341 526.01Z" fill="#24126A"/>
<path opacity="0.5" d="M398.124 436.73L387.904 430.867C387.097 430.334 385.752 430.334 384.945 430.867L375.532 436.464C374.725 436.997 374.456 437.796 375.532 438.329L385.752 444.192C386.559 444.725 387.904 444.725 388.711 444.192L398.124 438.596C398.931 438.063 398.931 437.263 398.124 436.73Z" fill="#24126A"/>
<path opacity="0.5" d="M381.987 427.402L371.767 421.539C370.96 421.006 369.615 421.006 368.808 421.539L359.395 427.135C358.588 427.668 358.319 428.468 359.395 429.001L369.615 434.864C370.422 435.397 371.767 435.397 372.573 434.864L381.987 429.267C382.794 428.734 382.794 427.935 381.987 427.402Z" fill="#24126A"/>
<path opacity="0.5" d="M365.852 418.341L355.631 412.478C354.824 411.945 353.48 411.945 352.673 412.478L343.259 418.075C342.453 418.608 342.184 419.407 343.259 419.94L353.48 425.804C354.287 426.337 355.631 426.337 356.438 425.804L365.852 420.207C366.658 419.407 366.658 418.608 365.852 418.341Z" fill="#24126A"/>
<path opacity="0.5" d="M349.714 409.014L339.494 403.151C338.687 402.618 337.342 402.618 336.536 403.151L327.122 408.748C326.315 409.281 326.046 410.08 327.122 410.613L337.342 416.476C338.149 417.009 339.494 417.009 340.301 416.476L349.714 410.88C350.521 410.347 350.521 409.547 349.714 409.014Z" fill="#24126A"/>
<path opacity="0.5" d="M413.993 445.791L403.773 439.928C402.966 439.395 401.621 439.395 400.814 439.928L391.401 445.524C390.594 446.057 390.325 446.857 391.401 447.39L401.621 453.253C402.428 453.786 403.773 453.786 404.58 453.253L413.993 447.656C414.531 446.857 414.8 446.057 413.993 445.791Z" fill="#24126A"/>
<path opacity="0.5" d="M429.591 454.585L419.371 448.722C418.564 448.189 417.219 448.189 416.412 448.722L406.999 454.319C406.192 454.852 405.923 455.651 406.999 456.184L417.219 462.047C418.026 462.58 419.371 462.58 420.177 462.047L429.591 456.451C430.398 455.918 430.398 455.118 429.591 454.585Z" fill="#24126A"/>
<path opacity="0.5" d="M445.463 463.648L435.242 457.785C434.435 457.252 433.091 457.252 432.284 457.785L422.87 463.382C422.063 463.915 421.794 464.714 422.87 465.247L433.091 471.11C433.897 471.643 435.242 471.643 436.049 471.11L445.463 465.514C446 464.981 446.269 464.181 445.463 463.648Z" fill="#24126A"/>
<path opacity="0.5" d="M461.062 472.709L450.841 466.845C450.034 466.312 448.69 466.312 447.883 466.845L438.469 472.442C437.662 472.975 437.394 473.775 438.469 474.308L448.69 480.171C449.496 480.704 450.841 480.704 451.648 480.171L461.062 474.574C461.868 474.041 461.868 473.242 461.062 472.709Z" fill="#24126A"/>
<path opacity="0.5" d="M476.93 481.77L466.71 475.907C465.903 475.374 464.558 475.374 463.751 475.907L454.338 481.503C453.531 482.036 453.262 482.836 454.338 483.369L464.558 489.232C465.365 489.765 466.71 489.765 467.517 489.232L476.93 483.635C477.468 482.836 477.737 482.036 476.93 481.77Z" fill="#24126A"/>
<path opacity="0.5" d="M492.528 490.565L482.308 484.701C481.501 484.168 480.156 484.168 479.35 484.701L469.936 490.298C469.129 490.831 468.86 491.631 469.936 492.164L480.156 498.027C480.963 498.56 482.308 498.56 483.115 498.027L492.528 492.43C493.335 491.897 493.335 491.098 492.528 490.565Z" fill="#24126A"/>
<path opacity="0.5" d="M508.399 499.627L498.179 493.764C497.372 493.231 496.028 493.231 495.221 493.764L485.807 499.361C485 499.894 484.731 500.693 485.807 501.226L496.027 507.09C496.834 507.623 498.179 507.623 498.986 507.09L508.399 501.493C508.937 500.96 509.206 500.16 508.399 499.627Z" fill="#24126A"/>
<path opacity="0.5" d="M523.998 508.686L513.777 502.823C512.97 502.29 511.626 502.29 510.819 502.823L501.405 508.42C500.599 508.953 500.33 509.752 501.405 510.285L511.626 516.149C512.433 516.682 513.777 516.682 514.584 516.149L523.998 510.552C524.804 510.019 524.804 509.219 523.998 508.686Z" fill="#24126A"/>
<path opacity="0.5" d="M539.597 517.748L529.376 511.885C528.57 511.352 527.225 511.352 526.418 511.885L517.004 517.482C516.198 518.015 515.929 518.814 517.004 519.347L527.225 525.21C528.032 525.743 529.377 525.743 530.183 525.21L539.597 519.614C540.404 519.081 540.673 518.281 539.597 517.748Z" fill="#24126A"/>
<path opacity="0.5" d="M360.203 431.667L349.983 425.804C349.176 425.271 347.831 425.271 347.024 425.804L337.611 431.4C336.804 431.933 336.535 432.733 337.611 433.266L347.831 439.129C348.638 439.662 349.983 439.662 350.79 439.129L360.203 433.532C361.01 432.733 361.01 431.933 360.203 431.667Z" fill="#24126A"/>
<path opacity="0.5" d="M344.605 422.606L334.385 416.743C333.578 416.21 332.233 416.21 331.426 416.743L322.013 422.34C321.206 422.873 320.937 423.672 322.013 424.205L332.233 430.069C333.04 430.602 334.385 430.602 335.192 430.069L344.605 424.472C345.143 423.939 345.412 423.139 344.605 422.606Z" fill="#24126A"/>
<path opacity="0.5" d="M328.738 413.544L318.518 407.68C317.711 407.147 316.366 407.147 315.56 407.68L306.146 413.277C305.339 413.81 305.07 414.61 306.146 415.143L316.366 421.006C317.173 421.539 318.518 421.539 319.325 421.006L328.738 415.409C329.545 414.876 329.545 414.077 328.738 413.544Z" fill="#24126A"/>
<path opacity="0.5" d="M313.138 404.749L302.917 398.886C302.111 398.353 300.766 398.353 299.959 398.886L290.546 404.483C289.739 405.016 289.47 405.815 290.546 406.348L300.766 412.211C301.573 412.744 302.917 412.744 303.724 412.211L313.138 406.615C313.945 405.815 313.945 405.016 313.138 404.749Z" fill="#24126A"/>
<path opacity="0.5" d="M298.076 413.544L287.856 407.68C287.049 407.147 285.704 407.147 284.897 407.68L281.67 409.546C280.863 410.079 280.594 410.879 281.67 411.412L291.89 417.275C292.697 417.808 294.042 417.808 294.848 417.275L298.076 415.409C298.883 414.61 298.883 413.81 298.076 413.544Z" fill="#24126A"/>
<path opacity="0.5" d="M318.515 425.006L308.295 419.143C307.488 418.61 306.143 418.61 305.336 419.143L302.109 421.009C301.302 421.542 301.033 422.341 302.109 422.874L312.329 428.737C313.136 429.27 314.481 429.27 315.288 428.737L318.515 426.872C319.322 426.339 319.322 425.539 318.515 425.006Z" fill="#24126A"/>
<path opacity="0.5" d="M334.114 434.065L323.894 428.202C323.087 427.669 321.742 427.669 320.935 428.202L317.708 430.068C316.901 430.601 316.632 431.4 317.708 431.933L327.928 437.796C328.735 438.329 330.08 438.329 330.886 437.796L334.114 435.931C334.921 435.398 334.921 434.598 334.114 434.065Z" fill="#24126A"/>
<path opacity="0.5" d="M349.714 442.861L339.494 436.998C338.687 436.465 337.343 436.465 336.536 436.998L333.308 438.863C332.501 439.396 332.232 440.196 333.308 440.729L343.528 446.592C344.335 447.125 345.68 447.125 346.487 446.592L349.714 444.726C350.521 444.193 350.521 443.394 349.714 442.861Z" fill="#24126A"/>
<path opacity="0.5" d="M365.313 451.921L355.092 446.058C354.286 445.525 352.941 445.525 352.134 446.058L348.906 447.924C348.099 448.457 347.831 449.256 348.906 449.789L359.127 455.652C359.934 456.185 361.278 456.185 362.085 455.652L365.313 453.787C365.851 453.254 366.12 452.454 365.313 451.921Z" fill="#24126A"/>
<path opacity="0.5" d="M452.185 501.759L441.964 495.896C441.157 495.363 439.813 495.363 439.006 495.896L435.778 497.761C434.972 498.294 434.703 499.094 435.778 499.627L445.999 505.49C446.806 506.023 448.15 506.023 448.957 505.49L452.185 503.624C452.992 502.825 452.992 502.025 452.185 501.759Z" fill="#24126A"/>
<path opacity="0.5" d="M467.786 510.552L457.566 504.689C456.759 504.156 455.414 504.156 454.607 504.689L451.379 506.554C450.573 507.087 450.304 507.887 451.379 508.42L461.6 514.283C462.407 514.816 463.751 514.816 464.558 514.283L467.786 512.417C468.593 511.884 468.593 511.085 467.786 510.552Z" fill="#24126A"/>
<path opacity="0.5" d="M483.384 519.613L473.164 513.75C472.357 513.217 471.012 513.217 470.205 513.75L466.978 515.616C466.171 516.149 465.902 516.948 466.978 517.481L477.198 523.344C478.005 523.877 479.35 523.877 480.156 523.344L483.384 521.479C484.191 520.679 484.191 519.88 483.384 519.613Z" fill="#24126A"/>
<path opacity="0.5" d="M498.985 528.409L488.765 522.546C487.958 522.013 486.613 522.013 485.806 522.546L482.579 524.411C481.772 524.944 481.503 525.744 482.579 526.277L492.799 532.14C493.606 532.673 494.951 532.673 495.758 532.14L498.985 530.275C499.792 529.742 499.792 528.942 498.985 528.409Z" fill="#24126A"/>
<path opacity="0.5" d="M375.801 440.46L365.581 434.597C364.774 434.064 363.429 434.064 362.622 434.597L353.209 440.193C352.402 440.726 352.133 441.526 353.209 442.059L363.429 447.922C364.236 448.455 365.581 448.455 366.387 447.922L375.801 442.326C376.608 441.793 376.608 440.993 375.801 440.46Z" fill="#24126A"/>
<path opacity="0.5" d="M391.671 449.523L381.45 443.66C380.643 443.127 379.299 443.127 378.492 443.66L369.078 449.256C368.271 449.789 368.002 450.589 369.078 451.122L379.299 456.985C380.105 457.518 381.45 457.518 382.257 456.985L391.671 451.388C392.477 450.855 392.477 450.056 391.671 449.523Z" fill="#24126A"/>
<path opacity="0.5" d="M407.271 458.583L397.05 452.72C396.243 452.187 394.899 452.187 394.092 452.72L384.678 458.317C383.871 458.85 383.603 459.649 384.678 460.182L394.899 466.045C395.705 466.578 397.05 466.578 397.857 466.045L407.271 460.449C408.077 459.916 408.077 459.116 407.271 458.583Z" fill="#24126A"/>
<path opacity="0.5" d="M423.14 467.646L412.92 461.783C412.113 461.25 410.768 461.25 409.961 461.783L400.548 467.38C399.741 467.913 399.472 468.712 400.548 469.245L410.768 475.108C411.575 475.641 412.92 475.641 413.727 475.108L423.14 469.512C423.947 468.712 423.947 467.913 423.14 467.646Z" fill="#24126A"/>
<path opacity="0.5" d="M438.738 476.439L428.518 470.576C427.711 470.043 426.366 470.043 425.56 470.576L416.146 476.173C415.339 476.706 415.07 477.505 416.146 478.038L426.366 483.901C427.173 484.434 428.518 484.434 429.325 483.901L438.738 478.305C439.545 477.772 439.545 476.972 438.738 476.439Z" fill="#24126A"/>
<path opacity="0.5" d="M454.605 485.502L444.384 479.639C443.577 479.106 442.233 479.106 441.426 479.639L432.012 485.236C431.205 485.769 430.936 486.568 432.012 487.101L442.233 492.964C443.039 493.497 444.384 493.497 445.191 492.964L454.605 487.368C455.411 486.835 455.411 486.035 454.605 485.502Z" fill="#24126A"/>
<path opacity="0.5" d="M470.208 494.561L459.987 488.698C459.18 488.165 457.836 488.165 457.029 488.698L447.615 494.295C446.808 494.828 446.54 495.627 447.615 496.16L457.836 502.024C458.642 502.557 459.987 502.557 460.794 502.024L470.208 496.427C471.014 495.894 471.014 495.094 470.208 494.561Z" fill="#24126A"/>
<path opacity="0.5" d="M486.074 503.624L475.854 497.761C475.047 497.228 473.702 497.228 472.895 497.761L463.482 503.357C462.675 503.89 462.406 504.69 463.482 505.223L473.702 511.086C474.509 511.619 475.854 511.619 476.661 511.086L486.074 505.489C486.612 504.69 486.881 503.89 486.074 503.624Z" fill="#24126A"/>
<path opacity="0.5" d="M501.675 512.419L491.455 506.555C490.648 506.022 489.303 506.022 488.497 506.555L479.083 512.152C478.276 512.685 478.007 513.485 479.083 514.018L489.303 519.881C490.11 520.414 491.455 520.414 492.262 519.881L501.675 514.284C502.482 513.751 502.482 512.952 501.675 512.419Z" fill="#24126A"/>
<path opacity="0.5" d="M374.996 390.36L344.872 373.304C344.066 372.771 342.721 372.771 341.914 373.304L332.501 378.9C331.694 379.433 331.425 380.233 332.501 380.766L362.624 397.822C363.43 398.355 364.775 398.355 365.582 397.822L374.996 392.226C375.802 391.693 376.071 390.893 374.996 390.36Z" fill="#24126A"/>
<path opacity="0.5" d="M568.373 500.959L538.25 483.903C537.443 483.37 536.098 483.37 535.291 483.903L525.878 489.5C525.071 490.033 524.802 490.832 525.878 491.365L556.001 508.421C556.808 508.955 558.153 508.955 558.96 508.421L568.373 502.825C569.18 502.025 569.18 501.226 568.373 500.959Z" fill="#24126A"/>
<path opacity="0.5" d="M539.328 465.247L529.108 459.383C528.301 458.85 526.956 458.85 526.149 459.383L514.853 466.046C514.046 466.579 513.777 467.379 514.853 467.912L525.073 473.775C525.88 474.308 527.225 474.308 528.032 473.775L539.328 467.112C539.866 466.579 540.135 465.78 539.328 465.247Z" fill="#24126A"/>
<path opacity="0.5" d="M425.021 399.953L408.615 390.626C407.808 390.093 406.463 390.093 405.656 390.626L394.36 397.288C393.553 397.821 393.284 398.621 394.36 399.154L410.766 408.482C411.573 409.015 412.918 409.015 413.725 408.482L425.021 401.819C425.828 401.286 425.828 400.486 425.021 399.953Z" fill="#24126A"/>
<path opacity="0.5" d="M523.998 456.719L507.592 447.391C506.785 446.858 505.44 446.858 504.633 447.391L493.337 454.054C492.53 454.587 492.261 455.386 493.337 455.919L509.743 465.247C510.55 465.78 511.895 465.78 512.702 465.247L523.998 458.584C524.805 458.051 524.805 457.252 523.998 456.719Z" fill="#24126A"/>
<path opacity="0.5" d="M447.614 413.013L431.207 403.685C430.4 403.152 429.056 403.152 428.249 403.685L416.953 410.348C416.146 410.881 415.877 411.68 416.953 412.213L433.359 421.541C434.166 422.074 435.511 422.074 436.317 421.541L447.614 414.878C448.42 414.345 448.42 413.546 447.614 413.013Z" fill="#24126A"/>
<path opacity="0.5" d="M416.95 412.212L487.685 452.721C488.492 453.254 489.837 453.254 490.644 452.721L502.209 446.059C503.016 445.526 503.016 444.726 502.209 444.193L431.474 403.684L416.95 412.212Z" fill="#24126A"/>
<path opacity="0.5" d="M568.106 490.298L579.402 496.694C579.94 496.961 581.285 496.961 581.823 496.694L586.395 494.029C587.202 493.496 587.202 492.963 586.395 492.697L575.099 486.301C574.561 486.034 573.216 486.034 572.678 486.301L568.106 488.966C567.568 489.232 567.568 490.032 568.106 490.298Z" fill="#24126A"/>
<path opacity="0.5" d="M552.236 481.237L563.533 487.633C564.071 487.899 565.415 487.899 565.953 487.633L570.525 484.968C571.332 484.435 571.332 483.902 570.525 483.635L559.229 477.239C558.691 476.972 557.347 476.972 556.809 477.239L552.236 479.904C551.699 480.171 551.699 480.97 552.236 481.237Z" fill="#24126A"/>
<path opacity="0.5" d="M536.64 472.175L547.936 478.571C548.474 478.838 549.819 478.838 550.357 478.571L554.929 475.906C555.736 475.373 555.736 474.84 554.929 474.574L543.633 468.177C543.095 467.911 541.75 467.911 541.212 468.177L536.64 470.843C535.833 471.109 535.833 471.909 536.64 472.175Z" fill="#24126A"/>
<path opacity="0.5" d="M544.169 486.034L555.465 492.43C556.003 492.697 557.348 492.697 557.886 492.43L562.458 489.765C563.265 489.232 563.265 488.699 562.458 488.433L551.162 482.037C550.624 481.77 549.279 481.77 548.741 482.037L544.169 484.702C543.631 484.968 543.362 485.501 544.169 486.034Z" fill="#24126A"/>
</g>
</g>
</g>
<path d="M149.884 494.83L139.664 488.967C138.857 488.434 138.857 487.634 139.932 487.101L151.767 480.172C152.573 479.639 154.187 479.639 154.994 480.172L165.214 486.035C166.021 486.568 166.021 487.368 164.945 487.901L153.111 494.83C152.304 495.363 150.691 495.363 149.884 494.83Z" fill="#0011AA"/>
<path d="M165.482 503.892L155.262 498.029C154.455 497.496 154.455 496.696 155.531 496.163L167.365 489.234C168.172 488.701 169.785 488.701 170.592 489.234L180.812 495.097C181.619 495.63 181.619 496.43 180.544 496.963L168.709 503.892C167.903 504.158 166.289 504.158 165.482 503.892Z" fill="#0011AA"/>
<path d="M181.085 512.685L170.865 506.822C170.058 506.289 170.058 505.489 171.134 504.956L182.968 498.027C183.775 497.494 185.389 497.494 186.196 498.027L196.416 503.89C197.223 504.423 197.223 505.223 196.147 505.756L184.313 512.685C183.506 513.218 181.892 513.218 181.085 512.685Z" fill="#0011AA"/>
<path d="M202.598 505.489L192.378 499.626C191.571 499.093 191.571 498.293 192.647 497.76L202.598 492.164C203.405 491.631 205.019 491.631 205.826 492.164L216.046 498.027C216.853 498.56 216.853 499.359 215.777 499.892L205.826 505.489C205.019 505.756 203.405 505.756 202.598 505.489Z" fill="#0011AA"/>
<path d="M218.199 514.285L207.979 508.422C207.172 507.889 207.172 507.089 208.248 506.556L218.199 500.959C219.006 500.426 220.62 500.426 221.427 500.959L231.647 506.823C232.454 507.356 232.454 508.155 231.378 508.688L221.427 514.285C220.62 514.818 219.006 514.818 218.199 514.285Z" fill="#0011AA"/>
<path d="M233.8 523.081L223.58 517.217C222.773 516.684 222.773 515.885 223.848 515.352L233.8 509.755C234.607 509.222 236.22 509.222 237.027 509.755L247.248 515.618C248.054 516.151 248.054 516.951 246.979 517.484L237.027 523.081C235.952 523.614 234.607 523.614 233.8 523.081Z" fill="#0011AA"/>
<path d="M249.395 532.14L239.175 526.277C238.368 525.744 238.368 524.944 239.444 524.411L249.395 518.814C250.202 518.281 251.816 518.281 252.623 518.814L262.843 524.678C263.65 525.211 263.65 526.01 262.574 526.543L252.623 532.14C251.547 532.406 250.202 532.673 249.395 532.14Z" fill="#0011AA"/>
<path d="M264.999 540.936L254.779 535.072C253.972 534.539 253.972 533.74 255.048 533.207L264.999 527.61C265.806 527.077 267.42 527.077 268.227 527.61L278.447 533.473C279.254 534.006 279.254 534.806 278.178 535.339L268.227 540.936C267.151 541.469 265.806 541.469 264.999 540.936Z" fill="#0011AA"/>
<path d="M280.597 549.996L270.377 544.133C269.57 543.6 269.57 542.8 270.646 542.267L280.597 536.671C281.404 536.138 283.018 536.138 283.825 536.671L294.045 542.534C294.852 543.067 294.852 543.866 293.776 544.399L283.825 549.996C282.749 550.262 281.404 550.529 280.597 549.996Z" fill="#0011AA"/>
<path d="M296.195 558.792L285.975 552.928C285.168 552.395 285.168 551.596 286.244 551.063L296.195 545.466C297.002 544.933 298.615 544.933 299.422 545.466L309.643 551.329C310.45 551.862 310.45 552.662 309.374 553.195L299.422 558.792C298.346 559.325 297.002 559.325 296.195 558.792Z" fill="#0011AA"/>
<path d="M311.796 567.852L301.576 561.989C300.769 561.456 300.769 560.656 301.845 560.123L311.796 554.527C312.603 553.994 314.217 553.994 315.023 554.527L325.244 560.39C326.051 560.923 326.051 561.722 324.975 562.255L315.023 567.852C313.948 568.118 312.603 568.118 311.796 567.852Z" fill="#0011AA"/>
<path d="M327.394 576.646L317.174 570.783C316.367 570.25 316.367 569.451 317.443 568.918L327.394 563.321C328.201 562.788 329.815 562.788 330.622 563.321L340.842 569.184C341.649 569.717 341.649 570.517 340.573 571.05L330.622 576.646C329.546 577.179 328.201 577.179 327.394 576.646Z" fill="#0011AA"/>
<path d="M342.995 585.708L332.774 579.845C331.967 579.312 331.968 578.512 333.043 577.979L342.995 572.383C343.802 571.85 345.415 571.85 346.222 572.383L356.442 578.246C357.249 578.779 357.249 579.578 356.174 580.111L346.222 585.708C345.146 585.974 343.802 585.974 342.995 585.708Z" fill="#0011AA"/>
<path d="M225.729 501.227L215.508 495.363C214.701 494.83 214.701 494.031 215.777 493.498L225.729 487.901C226.535 487.368 228.149 487.368 228.956 487.901L239.176 493.764C239.983 494.297 239.983 495.097 238.907 495.63L228.956 501.227C227.88 501.493 226.535 501.493 225.729 501.227Z" fill="#0011AA"/>
<path d="M209.862 492.164L199.642 486.301C198.835 485.768 198.835 484.968 199.911 484.435L209.862 478.838C210.669 478.305 212.282 478.305 213.089 478.838L223.31 484.701C224.117 485.234 224.117 486.034 223.041 486.567L213.089 492.164C212.013 492.43 210.669 492.697 209.862 492.164Z" fill="#0011AA"/>
<path d="M193.992 483.104L172.206 470.578C171.4 470.045 171.4 469.246 172.475 468.713L182.427 463.116C183.234 462.583 184.847 462.583 185.654 463.116L207.44 475.642C208.247 476.175 208.247 476.974 207.171 477.507L197.219 483.104C196.143 483.371 194.799 483.637 193.992 483.104Z" fill="#0011AA"/>
<path d="M205.021 471.91L187.27 461.782C186.464 461.249 186.464 460.45 187.539 459.917L197.491 454.32C198.298 453.787 199.911 453.787 200.718 454.32L218.469 464.448C219.276 464.981 219.276 465.78 218.2 466.313L208.249 471.91C207.173 472.443 205.828 472.443 205.021 471.91Z" fill="#0011AA"/>
<path d="M241.33 510.02L231.109 504.157C230.302 503.624 230.302 502.824 231.378 502.291L241.33 496.694C242.136 496.161 243.75 496.161 244.557 496.694L254.777 502.558C255.584 503.091 255.584 503.89 254.508 504.423L244.557 510.02C243.481 510.553 242.136 510.553 241.33 510.02Z" fill="#0011AA"/>
<path d="M256.927 519.081L246.707 513.218C245.9 512.685 245.9 511.885 246.976 511.352L256.927 505.756C257.734 505.223 259.348 505.223 260.155 505.756L270.375 511.619C271.182 512.152 271.182 512.952 270.106 513.485L260.155 519.081C259.079 519.348 257.734 519.348 256.927 519.081Z" fill="#0011AA"/>
<path d="M272.255 527.877L262.035 522.014C261.228 521.481 261.228 520.682 262.304 520.149L272.255 514.552C273.062 514.019 274.676 514.019 275.482 514.552L285.703 520.415C286.51 520.948 286.51 521.748 285.434 522.281L275.482 527.877C274.676 528.41 273.062 528.41 272.255 527.877Z" fill="#0011AA"/>
<path d="M287.858 536.938L277.638 531.074C276.831 530.541 276.831 529.742 277.907 529.209L287.858 523.612C288.665 523.079 290.279 523.079 291.086 523.612L301.306 529.475C302.113 530.008 302.113 530.808 301.037 531.341L291.086 536.938C290.279 537.204 288.665 537.204 287.858 536.938Z" fill="#0011AA"/>
<path d="M303.457 545.732L293.236 539.869C292.429 539.336 292.429 538.536 293.505 538.003L303.457 532.407C304.263 531.874 305.877 531.874 306.684 532.407L316.904 538.27C317.711 538.803 317.711 539.602 316.635 540.135L306.684 545.732C305.877 545.998 304.263 546.265 303.457 545.732Z" fill="#0011AA"/>
<path d="M319.058 554.527L308.837 548.663C308.03 548.13 308.03 547.331 309.106 546.798L319.058 541.201C319.865 540.668 321.478 540.668 322.285 541.201L332.505 547.064C333.312 547.597 333.312 548.397 332.236 548.93L322.285 554.527C321.478 555.06 319.865 555.06 319.058 554.527Z" fill="#0011AA"/>
<path d="M334.658 563.588L324.437 557.725C323.631 557.192 323.631 556.392 324.706 555.859L334.658 550.263C335.465 549.73 337.078 549.73 337.885 550.263L348.106 556.126C348.912 556.659 348.912 557.458 347.837 557.991L337.885 563.588C336.809 563.854 335.465 564.121 334.658 563.588Z" fill="#0011AA"/>
<path d="M350.256 572.383L340.036 566.52C339.229 565.987 339.229 565.187 340.305 564.654L350.256 559.057C351.063 558.524 352.677 558.524 353.484 559.057L363.704 564.921C364.511 565.454 364.511 566.253 363.435 566.786L353.484 572.383C352.408 572.916 351.063 572.916 350.256 572.383Z" fill="#0011AA"/>
<path d="M365.855 581.443L355.634 575.58C354.827 575.047 354.827 574.247 355.903 573.714L365.855 568.118C366.661 567.585 368.275 567.585 369.082 568.118L379.302 573.981C380.109 574.514 380.109 575.313 379.033 575.846L369.082 581.443C368.006 581.709 366.661 581.709 365.855 581.443Z" fill="#0011AA"/>
<path d="M393.557 597.168L371.503 584.643C370.696 584.11 370.696 583.31 371.772 582.777L381.723 577.181C382.53 576.648 384.144 576.648 384.951 577.181L407.005 589.706C407.812 590.239 407.812 591.039 406.736 591.572L396.785 597.168C395.709 597.701 394.364 597.701 393.557 597.168Z" fill="#0011AA"/>
<path d="M423.948 579.845L405.39 569.185C404.583 568.652 404.583 567.852 405.659 567.319L415.61 561.722C416.417 561.189 418.031 561.189 418.838 561.722L437.396 572.383C438.203 572.916 438.203 573.715 437.127 574.248L427.175 579.845C426.1 580.378 424.755 580.378 423.948 579.845Z" fill="#0011AA"/>
<path d="M268.492 508.42L258.271 502.557C257.465 502.024 257.465 501.225 258.54 500.692L268.492 495.095C269.299 494.562 270.912 494.562 271.719 495.095L281.939 500.958C282.746 501.491 282.746 502.291 281.67 502.824L271.719 508.42C270.643 508.687 269.299 508.687 268.492 508.42Z" fill="#0011AA"/>
<path d="M252.625 499.095L242.405 493.232C241.598 492.699 241.598 491.9 242.674 491.367L252.625 485.77C253.432 485.237 255.046 485.237 255.853 485.77L266.073 491.633C266.88 492.166 266.88 492.966 265.804 493.499L255.853 499.095C254.777 499.628 253.432 499.628 252.625 499.095Z" fill="#0011AA"/>
<path d="M236.488 490.031L226.268 484.168C225.461 483.635 225.461 482.836 226.536 482.303L236.488 476.706C237.295 476.173 238.908 476.173 239.715 476.706L249.936 482.569C250.742 483.102 250.742 483.902 249.667 484.435L239.715 490.031C238.908 490.564 237.295 490.564 236.488 490.031Z" fill="#0011AA"/>
<path d="M220.619 480.972L210.398 475.109C209.592 474.576 209.592 473.776 210.667 473.243L220.619 467.647C221.426 467.114 223.039 467.114 223.846 467.647L234.066 473.51C234.873 474.043 234.873 474.842 233.798 475.375L223.846 480.972C222.77 481.239 221.426 481.505 220.619 480.972Z" fill="#0011AA"/>
<path d="M284.094 517.216L273.874 511.353C273.067 510.82 273.067 510.02 274.143 509.487L284.094 503.891C284.901 503.358 286.515 503.358 287.322 503.891L297.542 509.754C298.349 510.287 298.349 511.086 297.273 511.619L287.322 517.216C286.246 517.749 284.901 517.749 284.094 517.216Z" fill="#0011AA"/>
<path d="M299.693 526.277L289.473 520.414C288.666 519.881 288.666 519.082 289.742 518.549L299.693 512.952C300.5 512.419 302.114 512.419 302.921 512.952L313.141 518.815C313.948 519.348 313.948 520.148 312.872 520.681L302.921 526.277C301.845 526.544 300.5 526.544 299.693 526.277Z" fill="#0011AA"/>
<path d="M315.292 535.072L305.071 529.209C304.264 528.676 304.264 527.876 305.34 527.343L315.292 521.747C316.098 521.214 317.712 521.214 318.519 521.747L328.739 527.61C329.546 528.143 329.546 528.942 328.47 529.475L318.519 535.072C317.443 535.339 316.098 535.605 315.292 535.072Z" fill="#0011AA"/>
<path d="M330.892 543.866L320.672 538.003C319.865 537.47 319.865 536.671 320.941 536.138L330.892 530.541C331.699 530.008 333.313 530.008 334.12 530.541L344.34 536.404C345.147 536.937 345.147 537.737 344.071 538.27L334.12 543.866C333.044 544.399 331.699 544.399 330.892 543.866Z" fill="#0011AA"/>
<path d="M346.49 552.928L336.27 547.065C335.463 546.532 335.463 545.732 336.539 545.199L346.49 539.603C347.297 539.07 348.911 539.07 349.718 539.603L359.938 545.466C360.745 545.999 360.745 546.798 359.669 547.331L349.718 552.928C348.642 553.195 347.297 553.461 346.49 552.928Z" fill="#0011AA"/>
<path d="M362.091 561.722L351.871 555.859C351.064 555.326 351.064 554.527 352.14 553.994L362.091 548.397C362.898 547.864 364.512 547.864 365.319 548.397L375.539 554.26C376.346 554.793 376.346 555.593 375.27 556.126L365.319 561.722C364.243 562.255 362.898 562.255 362.091 561.722Z" fill="#0011AA"/>
<path d="M377.691 570.783L367.471 564.92C366.664 564.387 366.664 563.587 367.74 563.054L377.691 557.457C378.498 556.924 380.112 556.924 380.919 557.457L391.139 563.321C391.946 563.854 391.946 564.653 390.87 565.186L380.919 570.783C379.843 571.049 378.498 571.049 377.691 570.783Z" fill="#0011AA"/>
<path d="M393.018 579.579L383.067 573.982C382.26 573.449 382.26 572.65 383.336 572.117L393.287 566.52C394.094 565.987 395.708 565.987 396.515 566.52L406.735 572.383C407.542 572.916 407.542 573.716 406.466 574.249L396.515 579.846C395.439 580.112 393.825 580.112 393.018 579.579Z" fill="#0011AA"/>
<path d="M408.62 588.64L398.399 582.777C397.593 582.244 397.592 581.445 398.668 580.912L408.62 575.315C409.427 574.782 411.04 574.782 411.847 575.315L422.067 581.178C422.874 581.711 422.874 582.511 421.798 583.044L411.847 588.64C411.04 588.907 409.427 588.907 408.62 588.64Z" fill="#0011AA"/>
<path d="M260.425 486.302L250.205 480.438C249.398 479.905 249.398 479.106 250.474 478.573L260.425 472.976C261.232 472.443 262.845 472.443 263.652 472.976L273.873 478.839C274.679 479.372 274.679 480.172 273.604 480.705L263.652 486.302C262.576 486.568 261.232 486.835 260.425 486.302Z" fill="#0011AA"/>
<path d="M244.825 477.507L234.604 471.644C233.798 471.111 233.798 470.311 234.873 469.778L244.825 464.182C245.632 463.649 247.245 463.649 248.052 464.182L258.273 470.045C259.079 470.578 259.079 471.377 258.004 471.91L248.052 477.507C246.976 477.773 245.632 477.773 244.825 477.507Z" fill="#0011AA"/>
<path d="M229.226 468.446L219.006 462.582C218.199 462.049 218.199 461.25 219.275 460.717L229.226 455.12C230.033 454.587 231.647 454.587 232.454 455.12L242.674 460.983C243.481 461.516 243.481 462.316 242.405 462.849L232.454 468.446C231.647 468.979 230.033 468.979 229.226 468.446Z" fill="#0011AA"/>
<path d="M213.894 459.65L203.673 453.786C202.866 453.253 202.866 452.454 203.942 451.921L213.894 446.324C214.7 445.791 216.314 445.791 217.121 446.324L227.341 452.187C228.148 452.72 228.148 453.52 227.072 454.053L217.121 459.65C216.045 460.183 214.7 460.183 213.894 459.65Z" fill="#0011AA"/>
<path d="M229.765 450.589L219.545 444.726C218.738 444.193 218.738 443.394 219.814 442.861L223.041 440.995C223.848 440.462 225.462 440.462 226.269 440.995L236.489 446.858C237.296 447.391 237.296 448.191 236.22 448.724L232.993 450.589C231.917 450.856 230.572 451.122 229.765 450.589Z" fill="#0011AA"/>
<path d="M249.937 462.049L239.717 456.186C238.91 455.653 238.91 454.853 239.986 454.32L243.213 452.455C244.02 451.922 245.634 451.922 246.441 452.455L256.661 458.318C257.468 458.851 257.468 459.65 256.392 460.183L253.165 462.049C252.089 462.582 250.744 462.582 249.937 462.049Z" fill="#0011AA"/>
<path d="M265.533 470.844L255.313 464.981C254.506 464.448 254.506 463.648 255.582 463.115L258.809 461.249C259.616 460.716 261.23 460.716 262.037 461.249L272.257 467.113C273.064 467.646 273.064 468.445 271.988 468.978L268.761 470.844C267.685 471.377 266.34 471.377 265.533 470.844Z" fill="#0011AA"/>
<path d="M280.866 479.905L270.645 474.042C269.839 473.509 269.839 472.709 270.914 472.176L274.142 470.311C274.949 469.778 276.563 469.778 277.369 470.311L287.59 476.174C288.397 476.707 288.396 477.506 287.321 478.039L284.093 479.905C283.017 480.172 281.673 480.172 280.866 479.905Z" fill="#0011AA"/>
<path d="M296.195 488.7L285.975 482.837C285.168 482.304 285.168 481.504 286.244 480.971L289.471 479.106C290.278 478.572 291.892 478.572 292.698 479.106L302.919 484.969C303.726 485.502 303.726 486.301 302.65 486.834L299.422 488.7C298.615 488.966 297.002 488.966 296.195 488.7Z" fill="#0011AA"/>
<path d="M382.531 538.003L372.31 532.14C371.504 531.607 371.504 530.807 372.579 530.274L375.807 528.409C376.614 527.876 378.228 527.876 379.034 528.409L389.255 534.272C390.062 534.805 390.062 535.604 388.986 536.137L385.758 538.003C384.682 538.269 383.338 538.269 382.531 538.003Z" fill="#0011AA"/>
<path d="M397.86 546.798L387.64 540.934C386.833 540.401 386.833 539.602 387.909 539.069L391.137 537.203C391.943 536.67 393.557 536.67 394.364 537.203L404.584 543.066C405.391 543.599 405.391 544.399 404.315 544.932L401.088 546.798C400.012 547.064 398.667 547.331 397.86 546.798Z" fill="#0011AA"/>
<path d="M413.461 555.592L403.241 549.729C402.434 549.196 402.434 548.396 403.51 547.863L406.738 545.998C407.544 545.465 409.158 545.465 409.965 545.998L420.185 551.861C420.992 552.394 420.992 553.193 419.916 553.726L416.689 555.592C415.613 556.125 414.268 556.125 413.461 555.592Z" fill="#0011AA"/>
<path d="M428.792 564.387L418.571 558.523C417.764 557.99 417.764 557.191 418.84 556.658L422.068 554.792C422.875 554.259 424.488 554.259 425.295 554.792L435.515 560.655C436.322 561.188 436.322 561.988 435.246 562.521L432.019 564.387C430.943 564.92 429.598 564.92 428.792 564.387Z" fill="#0011AA"/>
<path d="M275.753 495.095L265.533 489.232C264.726 488.699 264.726 487.899 265.802 487.366L275.753 481.77C276.56 481.237 278.174 481.237 278.98 481.77L289.201 487.633C290.008 488.166 290.008 488.965 288.932 489.498L278.98 495.095C278.174 495.628 276.56 495.628 275.753 495.095Z" fill="#0011AA"/>
<path d="M291.356 504.156L281.136 498.293C280.329 497.76 280.329 496.961 281.405 496.428L291.356 490.831C292.163 490.298 293.777 490.298 294.583 490.831L304.804 496.694C305.611 497.227 305.611 498.027 304.535 498.56L294.583 504.156C293.777 504.423 292.163 504.689 291.356 504.156Z" fill="#0011AA"/>
<path d="M306.954 512.953L297.002 507.356C296.196 506.823 296.196 506.023 297.271 505.49L307.223 499.894C308.03 499.361 309.643 499.361 310.45 499.894L320.67 505.757C321.477 506.29 321.477 507.09 320.402 507.623L310.45 513.219C309.374 513.486 307.761 513.486 306.954 512.953Z" fill="#0011AA"/>
<path d="M322.555 522.014L312.335 516.151C311.528 515.618 311.528 514.818 312.604 514.285L322.555 508.689C323.362 508.156 324.976 508.156 325.783 508.689L336.003 514.552C336.81 515.085 336.81 515.884 335.734 516.417L325.783 522.014C324.976 522.28 323.362 522.28 322.555 522.014Z" fill="#0011AA"/>
<path d="M338.153 530.808L327.933 524.945C327.126 524.412 327.126 523.612 328.202 523.079L338.153 517.483C338.96 516.95 340.573 516.95 341.38 517.483L351.601 523.346C352.407 523.879 352.408 524.678 351.332 525.211L341.38 530.808C340.305 531.341 338.96 531.341 338.153 530.808Z" fill="#0011AA"/>
<path d="M353.751 539.87L343.531 534.007C342.724 533.474 342.724 532.674 343.8 532.141L353.751 526.545C354.558 526.012 356.172 526.012 356.978 526.545L367.199 532.408C368.006 532.941 368.006 533.74 366.93 534.273L356.978 539.87C355.903 540.136 354.558 540.136 353.751 539.87Z" fill="#0011AA"/>
<path d="M369.352 548.664L359.132 542.801C358.325 542.268 358.325 541.469 359.401 540.935L369.352 535.339C370.159 534.806 371.773 534.806 372.58 535.339L382.8 541.202C383.607 541.735 383.607 542.534 382.531 543.068L372.58 548.664C371.504 549.197 370.159 549.197 369.352 548.664Z" fill="#0011AA"/>
<path d="M384.95 557.458L374.73 551.595C373.923 551.062 373.923 550.262 374.999 549.729L384.95 544.132C385.757 543.599 387.371 543.599 388.178 544.132L398.398 549.996C399.205 550.529 399.205 551.328 398.129 551.861L388.178 557.458C387.102 557.991 385.757 557.991 384.95 557.458Z" fill="#0011AA"/>
<path d="M400.549 566.52L390.329 560.657C389.522 560.124 389.522 559.325 390.597 558.792L400.549 553.195C401.356 552.662 402.969 552.662 403.776 553.195L413.997 559.058C414.803 559.591 414.803 560.391 413.728 560.924L403.776 566.52C402.701 566.787 401.356 567.053 400.549 566.52Z" fill="#0011AA"/>
<path d="M186.73 496.162L157.145 479.106C156.338 478.573 156.338 477.773 157.414 477.24L167.365 471.644C168.172 471.111 169.786 471.111 170.593 471.644L200.178 488.7C200.985 489.233 200.985 490.032 199.909 490.566L189.958 496.162C189.151 496.695 187.537 496.695 186.73 496.162Z" fill="#0011AA"/>
<path d="M378.229 605.697L348.644 588.641C347.837 588.108 347.837 587.308 348.912 586.775L358.864 581.178C359.671 580.645 361.284 580.645 362.091 581.178L391.676 598.235C392.483 598.768 392.483 599.567 391.407 600.1L381.456 605.697C380.38 606.23 379.035 606.23 378.229 605.697Z" fill="#0011AA"/>
<path d="M315.831 589.706L305.61 583.843C304.803 583.31 304.803 582.51 305.879 581.977L317.713 575.048C318.52 574.515 320.134 574.515 320.941 575.048L331.161 580.911C331.968 581.444 331.968 582.244 330.892 582.777L319.058 589.706C318.251 590.239 316.637 590.239 315.831 589.706Z" fill="#0011AA"/>
<path d="M202.869 525.211L186.731 515.883C185.925 515.35 185.925 514.551 187 514.018L198.834 507.089C199.641 506.556 201.255 506.556 202.062 507.089L218.199 516.416C219.006 516.949 219.006 517.749 217.93 518.282L206.096 525.211C205.02 525.478 203.676 525.478 202.869 525.211Z" fill="#0011AA"/>
<path d="M300.766 581.178L284.628 571.85C283.821 571.317 283.822 570.517 284.897 569.984L296.731 563.055C297.538 562.522 299.152 562.522 299.959 563.055L316.096 572.383C316.903 572.916 316.903 573.715 315.827 574.249L303.993 581.178C303.186 581.711 301.573 581.711 300.766 581.178Z" fill="#0011AA"/>
<path d="M225.192 538.004L209.055 528.676C208.248 528.143 208.248 527.343 209.324 526.81L221.158 519.881C221.964 519.348 223.578 519.348 224.385 519.881L240.522 529.209C241.329 529.742 241.329 530.541 240.253 531.074L228.419 538.004C227.344 538.27 225.999 538.537 225.192 538.004Z" fill="#0011AA"/>
<path d="M224.384 520.148L294.581 560.391C295.388 560.924 295.388 561.723 294.581 562.256L282.478 569.186C281.671 569.719 280.326 569.719 279.251 569.186L209.322 528.677L224.384 520.148Z" fill="#0011AA"/>
<path d="M359.403 605.963L370.699 612.359C371.237 612.626 371.237 613.425 370.43 613.958L365.589 616.623C364.782 617.156 363.706 617.156 362.899 616.623L351.603 610.227C351.065 609.961 351.065 609.161 351.872 608.628L356.713 605.963C357.52 605.696 358.865 605.696 359.403 605.963Z" fill="#0011AA"/>
<path d="M343.8 596.9L355.096 603.296C355.634 603.563 355.634 604.362 354.827 604.895L349.986 607.56C349.179 608.093 348.103 608.093 347.296 607.56L336 601.164C335.462 600.898 335.462 600.098 336.269 599.565L341.11 596.9C341.917 596.634 342.993 596.634 343.8 596.9Z" fill="#0011AA"/>
<path d="M328.201 588.105L339.497 594.502C340.035 594.768 340.035 595.568 339.228 596.101L334.387 598.766C333.58 599.299 332.504 599.299 331.697 598.766L320.401 592.37C319.863 592.103 319.863 591.304 320.67 590.771L325.511 588.105C326.318 587.839 327.394 587.839 328.201 588.105Z" fill="#0011AA"/>
<path d="M352.407 592.105L363.703 598.501C364.241 598.767 364.241 599.567 363.434 600.1L358.592 602.765C357.786 603.298 356.71 603.298 355.903 602.765L344.607 596.369C344.069 596.102 344.069 595.303 344.876 594.77L349.717 592.105C350.524 591.838 351.6 591.572 352.407 592.105Z" fill="#0011AA"/>
<path d="M511.36 351.983C510.553 351.983 509.746 351.716 508.939 351.183C506.518 349.851 505.174 346.653 505.711 344.254C505.98 343.188 506.787 342.122 507.594 341.855C508.67 341.322 510.015 341.589 511.36 342.122C513.78 343.455 515.125 346.653 514.587 349.051C514.318 350.117 513.511 351.183 512.704 351.45C512.166 351.716 511.629 351.983 511.36 351.983ZM508.939 342.655C508.67 342.655 508.401 342.655 507.863 342.922C507.056 343.188 506.787 343.721 506.518 344.787C505.98 346.919 507.325 349.318 509.208 350.384C510.284 350.917 511.091 351.183 511.897 350.65C512.704 350.384 512.973 349.851 513.242 348.785C513.78 346.653 512.435 344.254 510.553 343.188C510.284 342.921 509.477 342.655 508.939 342.655Z" fill="#00AA1B"/>
<path d="M524.001 359.179C523.194 359.179 522.387 358.913 521.581 358.38C519.16 357.047 517.815 353.849 518.353 351.451C518.622 350.385 519.429 349.319 520.236 349.052C521.312 348.519 522.656 348.785 524.001 349.319C526.422 350.651 527.767 353.849 527.229 356.248C526.96 357.314 526.153 358.38 525.346 358.646C525.077 359.179 524.539 359.179 524.001 359.179ZM521.85 350.118C521.581 350.118 521.312 350.118 520.774 350.385C519.967 350.651 519.698 351.184 519.429 352.25C518.891 354.382 520.236 356.781 522.119 357.847C523.194 358.38 524.001 358.646 524.808 358.113C525.615 357.847 525.884 357.314 526.153 356.248C526.691 354.116 525.346 351.717 523.463 350.651C522.925 350.118 522.387 350.118 521.85 350.118Z" fill="#00AA1B"/>
<path d="M539.869 363.71C539.332 365.842 537.18 366.642 535.028 365.576C532.877 364.243 531.532 361.578 532.07 359.179C532.608 357.047 534.759 356.248 536.911 357.314C539.063 358.646 540.407 361.578 539.869 363.71Z" fill="#00AA1B"/>
<path d="M293.505 223.26L286.512 219.263L287.05 216.065L294.043 220.062L293.505 223.26Z" fill="#00AA1B"/>
<path d="M303.456 228.856L296.732 225.125L297.27 221.927L303.994 225.924L303.456 228.856Z" fill="#00AA1B"/>
<path d="M283.556 217.663L268.494 208.869L269.032 205.937L284.094 214.465L283.556 217.663Z" fill="#00AA1B"/>
<path d="M432.558 416.476C430.944 416.476 429.061 415.943 427.448 414.877L331.7 360.243C325.783 357.045 322.555 349.05 324.438 342.387C325.245 339.189 327.396 336.79 330.086 335.724C332.775 334.658 335.734 334.925 338.692 336.524L434.441 391.158C440.358 394.356 443.585 402.351 441.702 409.014C440.895 412.212 438.744 414.61 436.054 415.676C434.709 416.209 433.634 416.476 432.558 416.476ZM333.582 336.257C332.506 336.257 331.7 336.524 330.624 336.79C328.203 337.856 326.32 339.988 325.514 342.92C323.9 349.05 326.858 356.512 332.237 359.443L427.986 414.077C430.406 415.41 433.096 415.676 435.516 414.877C437.937 413.811 439.82 411.679 440.626 408.747C442.24 402.617 439.282 395.155 433.903 392.224L338.154 337.59C336.541 336.524 334.927 336.257 333.582 336.257Z" fill="white"/>
<path d="M231.379 364.775V463.116C231.379 465.248 232.724 467.38 235.413 468.713L317.982 515.884C323.899 519.349 334.389 518.816 341.113 514.818C344.878 512.686 346.761 509.754 346.761 507.089V408.749L231.379 364.775Z" fill="#00AA1B"/>
<path opacity="0.3" d="M324.169 518.015C329.817 518.815 336.272 517.749 341.114 515.084C344.879 512.952 346.762 510.02 346.762 507.355V409.014L324.438 400.486H323.9V518.015H324.169Z" fill="#146A12"/>
<path d="M317.98 417.544L235.411 370.373C229.494 366.908 230.301 361.045 237.025 357.047C244.017 353.05 254.238 352.783 260.155 355.981L342.724 403.419C348.641 406.884 347.834 412.747 341.11 416.745C334.117 420.742 323.897 421.009 317.98 417.544Z" fill="#D1FFD9"/>
<path opacity="0.5" d="M317.98 554.794L235.411 507.622C229.494 504.158 230.301 498.295 237.025 494.297C244.017 490.3 254.238 490.033 260.155 493.231L342.724 540.403C348.641 543.867 347.834 549.73 341.11 553.728C334.117 557.726 323.897 558.259 317.98 554.794Z" fill="#24126A"/>
<path d="M326.051 411.414C322.017 411.414 318.789 408.216 318.789 404.218V360.511C318.789 345.587 307.762 326.665 294.852 319.203L276.025 308.276C270.915 305.345 266.612 304.812 263.653 306.411C260.695 308.01 259.081 312.274 259.081 317.87V361.577C259.081 365.575 255.854 368.773 251.819 368.773C247.785 368.773 244.558 365.575 244.558 361.577V318.137C244.558 306.944 248.592 298.682 256.123 294.418C263.653 290.154 273.067 290.687 282.749 296.283L301.576 307.21C319.058 317.337 332.775 340.79 332.775 360.778V404.485C333.313 408.216 330.085 411.414 326.051 411.414Z" fill="url(#paint5_linear)"/>
<defs>
<linearGradient id="paint0_linear" x1="576.579" y1="368.702" x2="205.717" y2="368.702" gradientUnits="userSpaceOnUse">
<stop stop-color="#C0BFF6"/>
<stop offset="0.2938" stop-color="#C5C4F7"/>
<stop offset="0.6399" stop-color="#D3D2F9"/>
<stop offset="1" stop-color="#E9E9FD"/>
</linearGradient>
<linearGradient id="paint1_linear" x1="576.576" y1="462.944" x2="512.895" y2="462.944" gradientUnits="userSpaceOnUse">
<stop stop-color="#5761D7"/>
<stop offset="0.1779" stop-color="#5C66D9"/>
<stop offset="0.3876" stop-color="#6A73DF"/>
<stop offset="0.6134" stop-color="#8289E8"/>
<stop offset="0.849" stop-color="#A3A7F5"/>
<stop offset="1" stop-color="#BCBEFF"/>
</linearGradient>
<linearGradient id="paint2_linear" x1="523.889" y1="563.772" x2="0.111074" y2="563.772" gradientUnits="userSpaceOnUse">
<stop stop-color="#0011AA"/>
<stop offset="0.1779" stop-color="#0011AA"/>
<stop offset="0.3876" stop-color="#3D4DD6"/>
<stop offset="0.6134" stop-color="#7782E6"/>
<stop offset="0.849" stop-color="#787DE7"/>
<stop offset="1" stop-color="#7F82E9"/>
</linearGradient>
<linearGradient id="paint3_linear" x1="726.296" y1="448.548" x2="202.518" y2="448.548" gradientUnits="userSpaceOnUse">
<stop stop-color="#5761D7"/>
<stop offset="0.1779" stop-color="#5C66D9"/>
<stop offset="0.3876" stop-color="#6A73DF"/>
<stop offset="0.6134" stop-color="#8289E8"/>
<stop offset="0.849" stop-color="#A3A7F5"/>
<stop offset="1" stop-color="#BCBEFF"/>
</linearGradient>
<linearGradient id="paint4_linear" x1="550.306" y1="434.36" x2="26.2493" y2="434.36" gradientUnits="userSpaceOnUse">
<stop stop-color="#C0BFF6"/>
<stop offset="0.2938" stop-color="#C5C4F7"/>
<stop offset="0.6399" stop-color="#D3D2F9"/>
<stop offset="1" stop-color="#E9E9FD"/>
</linearGradient>
<linearGradient id="paint5_linear" x1="202.881" y1="335.325" x2="408.97" y2="371.044" gradientUnits="userSpaceOnUse">
<stop stop-color="#9DF3A6"/>
<stop offset="0.1443" stop-color="#96F09A"/>
<stop offset="0.3696" stop-color="#6FE46D"/>
<stop offset="0.6461" stop-color="#54D652"/>
<stop offset="0.873" stop-color="#2FC747"/>
</linearGradient>
</defs>
</svg>
