<svg width="270" height="270" viewBox="0 0 270 270" fill="none" xmlns="http://www.w3.org/2000/svg">
<circle opacity="0.05" cx="135" cy="135" r="135" fill="white"/>
<path opacity="0.1" d="M32.6681 199.74L143.165 262.987C144.42 263.713 146.199 263.713 147.245 263.194L213.167 225.453C214.213 224.831 214.108 223.795 212.853 223.069L102.356 159.822C101.101 159.096 99.3217 159.096 98.2754 159.614L32.3542 197.355C31.3078 197.977 31.5171 199.014 32.6681 199.74Z" fill="#24126A"/>
<path d="M100.518 132.787L116.109 40.9229L114.853 40.4045L116.736 39.3677C117.155 39.1603 117.574 39.1603 118.201 39.4714L243.138 110.91C244.184 111.532 244.917 112.983 244.707 114.02L228.907 206.61C228.803 207.128 228.593 207.439 228.279 207.543L226.396 208.58L226.082 206.921H226.187L102.087 135.897C101.146 135.379 100.413 133.824 100.518 132.787Z" fill="url(#paint0_linear)"/>
<path d="M242.51 113.398L244.603 112.465C244.812 112.983 244.917 113.502 244.917 114.02L229.116 206.61C229.012 207.128 228.803 207.439 228.489 207.543L226.605 208.58L226.291 206.921H226.396L220.118 203.292L242.51 113.398Z" fill="url(#paint1_linear)"/>
<path d="M99.9671 137.008L224.903 208.447C225.845 208.965 226.682 208.654 226.892 207.721L242.692 115.131C242.901 114.094 242.064 112.539 241.122 112.02L116.081 40.5823C115.139 40.0638 114.302 40.3749 114.093 41.308L98.2929 133.898C98.1883 134.935 98.9207 136.49 99.9671 137.008Z" fill="white"/>
<path d="M114.309 49.3249C114.892 45.8995 118.705 44.098 121.721 45.8229L237.936 112.285C239.757 113.327 240.735 115.395 240.383 117.464L226.368 199.866C225.786 203.292 221.973 205.093 218.957 203.368L102.742 136.906C100.92 135.864 99.9429 133.796 100.295 131.727L114.309 49.3249Z" fill="#0011AA"/>
<path d="M20.5581 180.119L27.3595 183.644L95.6873 144.555C96.8383 143.933 98.8264 143.933 100.187 144.762L218.112 212.157C219.263 211.535 224.391 209.046 224.391 209.046L221.879 213.09C221.775 213.401 221.565 213.609 221.147 213.816L149.157 254.978C148.006 255.601 146.018 255.6 144.657 254.771L24.0111 185.718C23.4879 185.406 23.174 184.992 22.9647 184.681L20.5581 180.119Z" fill="url(#paint2_linear)"/>
<path d="M21.6045 181.259L145.181 251.971C146.541 252.697 148.529 252.801 149.785 252.179L223.553 209.979C224.704 209.357 224.6 208.113 223.24 207.387L99.6635 136.675C98.3033 135.949 96.3152 135.845 95.0595 136.468L21.2906 178.667C20.1396 179.289 20.2442 180.43 21.6045 181.259Z" fill="#E7E9F9"/>
<path d="M21.6043 180.741L145.18 251.453C146.541 252.179 148.529 252.282 149.784 251.66L223.553 209.357C223.972 209.15 224.181 208.839 224.286 208.528C224.39 209.046 224.181 209.565 223.553 209.979L149.784 252.179C148.633 252.801 146.541 252.801 145.18 251.971L21.6043 181.259C20.7672 180.741 20.3487 180.118 20.558 179.496C20.6626 179.911 20.9765 180.326 21.6043 180.741Z" fill="#CDD1F2"/>
<g opacity="0.15">
<g opacity="0.4">
<mask id="mask0" mask-type="alpha" maskUnits="userSpaceOnUse" x="98" y="40" width="142" height="165">
<path d="M114.084 40.3323L239.543 112.082L223.743 204.982L98.2834 133.233L114.084 40.3323Z" fill="#0011AA"/>
</mask>
<g mask="url(#mask0)">
<path d="M99.3193 135.352L106.121 138.878L174.449 99.7889C175.6 99.1668 177.588 99.1668 178.948 99.9963L296.874 167.391C298.025 166.769 303.152 164.28 303.152 164.28L300.641 168.324C300.536 168.635 300.327 168.842 299.908 169.05L227.918 210.212C226.767 210.834 224.779 210.834 223.419 210.005L102.772 140.951C102.249 140.64 101.935 140.226 101.726 139.915L99.3193 135.352Z" fill="url(#paint3_linear)"/>
<path d="M100.366 136.391L223.942 207.103C225.303 207.829 227.291 207.933 228.546 207.311L302.315 165.111C303.466 164.489 303.362 163.245 302.001 162.519L178.321 91.8068C176.96 91.081 174.972 90.9773 173.717 91.5994L99.9478 133.799C98.7968 134.421 99.0061 135.665 100.366 136.391Z" fill="url(#paint4_linear)"/>
<path opacity="0.15" d="M301.999 162.518L178.319 91.8052C177.482 91.2868 176.331 91.0795 175.284 91.1831C176.017 91.2868 176.854 91.4942 177.377 91.8052L300.953 162.518C302.313 163.243 302.418 164.488 301.267 165.11L227.498 207.309C227.079 207.516 226.556 207.724 226.033 207.724C226.975 207.828 227.812 207.62 228.44 207.309L302.209 165.11C303.464 164.488 303.36 163.243 301.999 162.518Z" fill="white"/>
</g>
<g opacity="0.5">
<path opacity="0.5" d="M165.135 124.258L161.159 121.977C160.845 121.77 160.322 121.77 160.008 121.977L155.613 124.569C155.3 124.777 155.195 125.088 155.613 125.295L159.59 127.576C159.904 127.783 160.427 127.783 160.741 127.576L165.135 124.984C165.345 124.777 165.449 124.465 165.135 124.258Z" fill="#24126A"/>
<path opacity="0.5" d="M171.205 127.783L167.229 125.502C166.915 125.295 166.392 125.295 166.078 125.502L161.683 128.095C161.369 128.302 161.264 128.613 161.683 128.82L165.659 131.101C165.973 131.309 166.496 131.309 166.81 131.101L171.205 128.509C171.519 128.198 171.519 127.887 171.205 127.783Z" fill="#24126A"/>
<path opacity="0.5" d="M177.378 131.205L173.402 128.924C173.088 128.717 172.565 128.717 172.251 128.924L167.856 131.516C167.542 131.724 167.437 132.035 167.856 132.242L171.832 134.523C172.146 134.73 172.669 134.73 172.983 134.523L177.378 131.931C177.587 131.724 177.692 131.412 177.378 131.205Z" fill="#24126A"/>
<path opacity="0.5" d="M172.669 135.87L168.693 133.589C168.379 133.382 167.856 133.382 167.542 133.589L163.88 135.767C163.566 135.974 163.461 136.285 163.88 136.493L167.856 138.774C168.17 138.981 168.693 138.981 169.007 138.774L172.669 136.596C172.983 136.389 172.983 136.078 172.669 135.87Z" fill="#24126A"/>
<path opacity="0.5" d="M178.843 139.396L174.867 137.115C174.553 136.908 174.03 136.908 173.716 137.115L170.054 139.292C169.74 139.5 169.635 139.811 170.054 140.018L174.03 142.299C174.344 142.507 174.867 142.507 175.181 142.299L178.843 140.122C179.052 139.914 179.157 139.603 178.843 139.396Z" fill="#24126A"/>
<path opacity="0.5" d="M184.912 142.921L180.936 140.64C180.622 140.433 180.098 140.433 179.785 140.64L176.122 142.817C175.808 143.025 175.704 143.336 176.122 143.543L180.098 145.824C180.412 146.032 180.936 146.032 181.249 145.824L184.912 143.647C185.226 143.44 185.226 143.129 184.912 142.921Z" fill="#24126A"/>
<path opacity="0.5" d="M191.086 146.446L187.109 144.165C186.795 143.958 186.272 143.958 185.958 144.165L182.296 146.343C181.982 146.55 181.878 146.861 182.296 147.068L186.272 149.349C186.586 149.557 187.109 149.557 187.423 149.349L191.086 147.172C191.295 146.861 191.399 146.55 191.086 146.446Z" fill="#24126A"/>
<path opacity="0.5" d="M197.155 149.868L193.179 147.587C192.865 147.38 192.342 147.38 192.028 147.587L188.365 149.764C188.052 149.972 187.947 150.283 188.365 150.49L192.342 152.771C192.656 152.978 193.179 152.978 193.493 152.771L197.155 150.594C197.469 150.386 197.469 150.075 197.155 149.868Z" fill="#24126A"/>
<path opacity="0.5" d="M203.328 153.394L199.352 151.113C199.038 150.905 198.515 150.905 198.201 151.113L194.539 153.29C194.225 153.498 194.12 153.809 194.539 154.016L198.515 156.297C198.829 156.504 199.352 156.504 199.666 156.297L203.328 154.12C203.537 153.912 203.642 153.601 203.328 153.394Z" fill="#24126A"/>
<path opacity="0.5" d="M209.397 156.918L205.421 154.637C205.107 154.43 204.584 154.43 204.27 154.637L200.608 156.815C200.294 157.022 200.189 157.333 200.608 157.54L204.584 159.821C204.898 160.029 205.421 160.029 205.735 159.821L209.397 157.644C209.711 157.437 209.711 157.126 209.397 156.918Z" fill="#24126A"/>
<path opacity="0.5" d="M215.465 160.444L211.489 158.163C211.175 157.955 210.652 157.955 210.338 158.163L206.676 160.34C206.362 160.547 206.257 160.858 206.676 161.066L210.652 163.347C210.966 163.554 211.489 163.554 211.803 163.347L215.465 161.169C215.779 160.858 215.884 160.547 215.465 160.444Z" fill="#24126A"/>
<path opacity="0.5" d="M221.639 163.866L217.663 161.585C217.349 161.377 216.826 161.377 216.512 161.585L212.85 163.762C212.536 163.969 212.431 164.281 212.85 164.488L216.826 166.769C217.14 166.976 217.663 166.976 217.977 166.769L221.639 164.592C221.953 164.384 221.953 164.073 221.639 163.866Z" fill="#24126A"/>
<path opacity="0.5" d="M227.708 167.39L223.732 165.109C223.418 164.902 222.895 164.902 222.581 165.109L218.918 167.287C218.604 167.494 218.5 167.805 218.918 168.013L222.895 170.294C223.208 170.501 223.732 170.501 224.046 170.294L227.708 168.116C228.022 167.909 228.126 167.598 227.708 167.39Z" fill="#24126A"/>
<path opacity="0.5" d="M170.157 140.951L166.181 138.67C165.867 138.463 165.344 138.463 165.03 138.67L161.368 140.848C161.054 141.055 160.949 141.366 161.368 141.574L165.344 143.855C165.658 144.062 166.181 144.062 166.495 143.855L170.157 141.677C170.471 141.366 170.471 141.055 170.157 140.951Z" fill="#24126A"/>
<path opacity="0.5" d="M163.88 137.323L159.903 135.042C159.589 134.834 159.066 134.834 158.752 135.042L155.09 137.219C154.776 137.426 154.671 137.738 155.09 137.945L159.066 140.226C159.38 140.433 159.903 140.433 160.217 140.226L163.88 138.049C164.193 137.841 164.193 137.53 163.88 137.323Z" fill="#24126A"/>
<path opacity="0.5" d="M157.705 133.797L149.125 128.924C148.811 128.717 148.288 128.717 147.974 128.924L144.311 131.101C143.998 131.309 143.893 131.62 144.311 131.827L152.892 136.7C153.206 136.908 153.729 136.908 154.043 136.7L157.705 134.523C158.019 134.316 158.019 134.005 157.705 133.797Z" fill="#24126A"/>
<path opacity="0.5" d="M150.486 136.078L143.58 132.138C143.266 131.931 142.742 131.931 142.429 132.138L138.766 134.316C138.452 134.523 138.348 134.834 138.766 135.041L145.672 138.981C145.986 139.189 146.509 139.189 146.823 138.981L150.486 136.804C150.8 136.597 150.8 136.286 150.486 136.078Z" fill="#24126A"/>
<path opacity="0.5" d="M176.227 144.373L172.251 142.092C171.937 141.885 171.414 141.885 171.1 142.092L167.437 144.269C167.124 144.477 167.019 144.788 167.437 144.995L171.414 147.276C171.728 147.484 172.251 147.484 172.565 147.276L176.227 145.099C176.541 144.892 176.541 144.58 176.227 144.373Z" fill="#24126A"/>
<path opacity="0.5" d="M182.4 147.898L178.424 145.617C178.11 145.41 177.586 145.41 177.273 145.617L173.61 147.794C173.296 148.002 173.192 148.313 173.61 148.52L177.587 150.801C177.9 151.009 178.424 151.009 178.737 150.801L182.4 148.624C182.714 148.416 182.714 148.105 182.4 147.898Z" fill="#24126A"/>
<path opacity="0.5" d="M188.469 151.423L184.493 149.142C184.179 148.935 183.656 148.935 183.342 149.142L179.68 151.32C179.366 151.527 179.261 151.838 179.68 152.045L183.656 154.327C183.97 154.534 184.493 154.534 184.807 154.327L188.469 152.149C188.783 151.942 188.783 151.631 188.469 151.423Z" fill="#24126A"/>
<path opacity="0.5" d="M194.643 154.949L190.667 152.668C190.353 152.461 189.829 152.461 189.515 152.668L185.853 154.846C185.539 155.053 185.435 155.364 185.853 155.571L189.829 157.852C190.143 158.06 190.666 158.06 190.98 157.852L194.643 155.675C194.957 155.364 194.957 155.053 194.643 154.949Z" fill="#24126A"/>
<path opacity="0.5" d="M200.712 158.37L196.735 156.089C196.421 155.882 195.898 155.882 195.584 156.089L191.922 158.266C191.608 158.474 191.504 158.785 191.922 158.992L195.898 161.273C196.212 161.481 196.735 161.481 197.049 161.273L200.712 159.096C201.025 158.889 201.025 158.578 200.712 158.37Z" fill="#24126A"/>
<path opacity="0.5" d="M206.886 161.896L202.91 159.615C202.596 159.407 202.073 159.407 201.759 159.615L198.097 161.792C197.783 161.999 197.678 162.31 198.097 162.518L202.073 164.799C202.387 165.006 202.91 165.006 203.224 164.799L206.886 162.621C207.096 162.414 207.2 162.103 206.886 161.896Z" fill="#24126A"/>
<path opacity="0.5" d="M212.953 165.42L208.977 163.139C208.663 162.932 208.14 162.932 207.826 163.139L204.164 165.317C203.85 165.524 203.745 165.835 204.164 166.043L208.14 168.324C208.454 168.531 208.977 168.531 209.291 168.324L212.953 166.146C213.267 165.939 213.267 165.628 212.953 165.42Z" fill="#24126A"/>
<path opacity="0.5" d="M219.128 168.946L215.151 166.665C214.837 166.458 214.314 166.458 214 166.665L210.338 168.842C210.024 169.05 209.92 169.361 210.338 169.568L214.314 171.849C214.628 172.057 215.151 172.057 215.465 171.849L219.128 169.672C219.337 169.361 219.441 169.05 219.128 168.946Z" fill="#24126A"/>
<path opacity="0.5" d="M225.197 172.367L221.221 170.086C220.907 169.879 220.384 169.879 220.07 170.086L216.407 172.264C216.093 172.471 215.989 172.782 216.407 172.989L220.384 175.27C220.698 175.478 221.221 175.478 221.535 175.27L225.197 173.093C225.511 172.886 225.511 172.575 225.197 172.367Z" fill="#24126A"/>
<path opacity="0.5" d="M236.078 178.588L227.394 173.611C227.08 173.404 226.556 173.404 226.243 173.611L222.58 175.789C222.266 175.996 222.162 176.307 222.58 176.514L231.265 181.491C231.579 181.699 232.102 181.699 232.416 181.491L236.078 179.314C236.392 179.107 236.392 178.796 236.078 178.588Z" fill="#24126A"/>
<path opacity="0.5" d="M224.882 185.121L217.558 180.973C217.244 180.766 216.721 180.766 216.407 180.973L212.745 183.151C212.431 183.358 212.326 183.669 212.745 183.877L220.069 188.024C220.383 188.231 220.906 188.231 221.22 188.024L224.882 185.847C225.196 185.639 225.196 185.328 224.882 185.121Z" fill="#24126A"/>
<path opacity="0.5" d="M175.389 150.386L171.413 148.105C171.099 147.898 170.576 147.898 170.262 148.105L166.6 150.283C166.286 150.49 166.181 150.801 166.6 151.008L170.576 153.289C170.89 153.497 171.413 153.497 171.727 153.289L175.389 151.112C175.703 150.905 175.703 150.594 175.389 150.386Z" fill="#24126A"/>
<path opacity="0.5" d="M169.111 146.757L165.134 144.476C164.821 144.269 164.297 144.269 163.984 144.476L160.321 146.653C160.007 146.861 159.903 147.172 160.321 147.379L164.297 149.66C164.611 149.868 165.135 149.868 165.448 149.66L169.111 147.483C169.425 147.276 169.425 146.964 169.111 146.757Z" fill="#24126A"/>
<path opacity="0.5" d="M162.833 143.232L158.857 140.951C158.543 140.744 158.02 140.744 157.706 140.951L154.044 143.128C153.73 143.336 153.625 143.647 154.044 143.854L158.02 146.135C158.334 146.343 158.857 146.343 159.171 146.135L162.833 143.958C163.147 143.647 163.147 143.336 162.833 143.232Z" fill="#24126A"/>
<path opacity="0.5" d="M156.555 139.604L152.579 137.323C152.265 137.115 151.742 137.115 151.428 137.323L147.766 139.5C147.452 139.707 147.347 140.018 147.766 140.226L151.742 142.507C152.056 142.714 152.579 142.714 152.893 142.507L156.555 140.329C156.869 140.122 156.869 139.811 156.555 139.604Z" fill="#24126A"/>
<path opacity="0.5" d="M181.563 153.911L177.587 151.63C177.273 151.423 176.75 151.423 176.436 151.63L172.773 153.808C172.459 154.015 172.355 154.326 172.773 154.533L176.75 156.814C177.063 157.022 177.587 157.022 177.901 156.814L181.563 154.637C181.772 154.326 181.877 154.015 181.563 153.911Z" fill="#24126A"/>
<path opacity="0.5" d="M187.631 157.333L183.655 155.052C183.341 154.844 182.818 154.844 182.504 155.052L178.842 157.229C178.528 157.437 178.423 157.748 178.842 157.955L182.818 160.236C183.132 160.443 183.655 160.443 183.969 160.236L187.631 158.059C187.945 157.851 187.945 157.54 187.631 157.333Z" fill="#24126A"/>
<path opacity="0.5" d="M193.806 160.859L189.83 158.578C189.516 158.37 188.993 158.37 188.679 158.578L185.017 160.755C184.703 160.962 184.598 161.273 185.017 161.481L188.993 163.762C189.307 163.969 189.83 163.969 190.144 163.762L193.806 161.584C194.016 161.377 194.12 161.066 193.806 160.859Z" fill="#24126A"/>
<path opacity="0.5" d="M199.875 164.384L195.898 162.103C195.585 161.895 195.061 161.895 194.747 162.103L191.085 164.28C190.771 164.488 190.667 164.799 191.085 165.006L195.061 167.287C195.375 167.494 195.898 167.494 196.212 167.287L199.875 165.11C200.189 164.902 200.189 164.591 199.875 164.384Z" fill="#24126A"/>
<path opacity="0.5" d="M206.048 167.909L202.072 165.628C201.758 165.421 201.235 165.421 200.921 165.628L197.259 167.805C196.945 168.013 196.84 168.324 197.259 168.531L201.235 170.812C201.549 171.02 202.072 171.02 202.386 170.812L206.048 168.635C206.258 168.324 206.362 168.013 206.048 167.909Z" fill="#24126A"/>
<path opacity="0.5" d="M212.117 171.331L208.14 169.05C207.826 168.842 207.303 168.842 206.989 169.05L203.327 171.227C203.013 171.434 202.909 171.745 203.327 171.953L207.303 174.234C207.617 174.441 208.14 174.441 208.454 174.234L212.117 172.056C212.431 171.849 212.431 171.538 212.117 171.331Z" fill="#24126A"/>
<path opacity="0.5" d="M218.291 174.857L214.315 172.575C214.001 172.368 213.478 172.368 213.164 172.575L209.502 174.753C209.188 174.96 209.083 175.271 209.502 175.479L213.478 177.76C213.792 177.967 214.315 177.967 214.629 177.76L218.291 175.582C218.501 175.375 218.605 175.064 218.291 174.857Z" fill="#24126A"/>
<path opacity="0.5" d="M224.36 178.381L220.384 176.1C220.07 175.892 219.547 175.892 219.233 176.1L215.57 178.277C215.257 178.485 215.152 178.796 215.57 179.003L219.547 181.284C219.861 181.491 220.384 181.491 220.698 181.284L224.36 179.107C224.674 178.899 224.674 178.588 224.36 178.381Z" fill="#24126A"/>
<path opacity="0.5" d="M230.429 181.906L226.452 179.625C226.138 179.418 225.615 179.418 225.301 179.625L221.639 181.803C221.325 182.01 221.221 182.321 221.639 182.528L225.615 184.809C225.929 185.017 226.452 185.017 226.766 184.809L230.429 182.632C230.743 182.425 230.847 182.114 230.429 181.906Z" fill="#24126A"/>
<path opacity="0.5" d="M160.636 148.416L156.659 146.135C156.346 145.928 155.822 145.928 155.508 146.135L151.846 148.313C151.532 148.52 151.428 148.831 151.846 149.038L155.822 151.319C156.136 151.527 156.659 151.527 156.973 151.319L160.636 149.142C160.95 148.831 160.95 148.52 160.636 148.416Z" fill="#24126A"/>
<path opacity="0.5" d="M154.568 144.891L150.591 142.61C150.277 142.403 149.754 142.403 149.44 142.61L145.778 144.788C145.464 144.995 145.359 145.306 145.778 145.514L149.754 147.795C150.068 148.002 150.591 148.002 150.905 147.795L154.568 145.617C154.777 145.41 154.881 145.099 154.568 144.891Z" fill="#24126A"/>
<path opacity="0.5" d="M148.395 141.366L144.418 139.085C144.105 138.877 143.581 138.877 143.267 139.085L139.605 141.262C139.291 141.469 139.187 141.78 139.605 141.988L143.581 144.269C143.895 144.476 144.418 144.476 144.732 144.269L148.395 142.092C148.709 141.884 148.709 141.573 148.395 141.366Z" fill="#24126A"/>
<path opacity="0.5" d="M142.325 137.944L138.349 135.663C138.035 135.456 137.512 135.456 137.198 135.663L133.536 137.84C133.222 138.048 133.117 138.359 133.536 138.566L137.512 140.847C137.826 141.055 138.349 141.055 138.663 140.847L142.325 138.67C142.639 138.359 142.639 138.048 142.325 137.944Z" fill="#24126A"/>
<path opacity="0.5" d="M136.465 141.366L132.489 139.085C132.175 138.877 131.652 138.877 131.338 139.085L130.082 139.811C129.769 140.018 129.664 140.329 130.082 140.536L134.059 142.817C134.373 143.025 134.896 143.025 135.21 142.817L136.465 142.092C136.779 141.781 136.779 141.469 136.465 141.366Z" fill="#24126A"/>
<path opacity="0.5" d="M144.417 145.825L140.441 143.544C140.127 143.337 139.604 143.337 139.29 143.544L138.035 144.27C137.721 144.477 137.616 144.788 138.035 144.996L142.011 147.277C142.325 147.484 142.848 147.484 143.162 147.277L144.417 146.551C144.731 146.344 144.731 146.033 144.417 145.825Z" fill="#24126A"/>
<path opacity="0.5" d="M150.486 149.35L146.509 147.069C146.195 146.861 145.672 146.861 145.358 147.069L144.103 147.794C143.789 148.002 143.684 148.313 144.103 148.52L148.079 150.801C148.393 151.009 148.916 151.009 149.23 150.801L150.486 150.075C150.799 149.868 150.799 149.557 150.486 149.35Z" fill="#24126A"/>
<path opacity="0.5" d="M156.555 152.772L152.579 150.49C152.265 150.283 151.742 150.283 151.428 150.49L150.172 151.216C149.858 151.424 149.754 151.735 150.172 151.942L154.148 154.223C154.462 154.43 154.985 154.43 155.299 154.223L156.555 153.497C156.869 153.29 156.869 152.979 156.555 152.772Z" fill="#24126A"/>
<path opacity="0.5" d="M162.624 156.296L158.647 154.015C158.333 153.808 157.81 153.808 157.496 154.015L156.241 154.741C155.927 154.949 155.822 155.26 156.241 155.467L160.217 157.748C160.531 157.955 161.054 157.955 161.368 157.748L162.624 157.022C162.833 156.815 162.937 156.504 162.624 156.296Z" fill="#24126A"/>
<path opacity="0.5" d="M196.421 175.686L192.445 173.405C192.131 173.197 191.608 173.197 191.294 173.405L190.039 174.13C189.725 174.338 189.62 174.649 190.039 174.856L194.015 177.137C194.329 177.345 194.852 177.345 195.166 177.137L196.421 176.411C196.735 176.1 196.735 175.789 196.421 175.686Z" fill="#24126A"/>
<path opacity="0.5" d="M202.491 179.106L198.515 176.825C198.201 176.618 197.678 176.618 197.364 176.825L196.108 177.551C195.794 177.759 195.69 178.07 196.108 178.277L200.084 180.558C200.398 180.765 200.921 180.765 201.235 180.558L202.491 179.832C202.805 179.625 202.805 179.314 202.491 179.106Z" fill="#24126A"/>
<path opacity="0.5" d="M208.559 182.632L204.583 180.351C204.269 180.143 203.746 180.143 203.432 180.351L202.176 181.077C201.863 181.284 201.758 181.595 202.176 181.802L206.153 184.083C206.467 184.291 206.99 184.291 207.304 184.083L208.559 183.358C208.873 183.047 208.873 182.736 208.559 182.632Z" fill="#24126A"/>
<path opacity="0.5" d="M214.629 186.054L210.653 183.773C210.339 183.565 209.816 183.565 209.502 183.773L208.246 184.498C207.932 184.706 207.827 185.017 208.246 185.224L212.222 187.505C212.536 187.713 213.059 187.713 213.373 187.505L214.629 186.78C214.943 186.572 214.943 186.261 214.629 186.054Z" fill="#24126A"/>
<path opacity="0.5" d="M166.704 151.837L162.728 149.556C162.414 149.349 161.891 149.349 161.577 149.556L157.915 151.734C157.601 151.941 157.496 152.252 157.915 152.46L161.891 154.741C162.205 154.948 162.728 154.948 163.042 154.741L166.704 152.563C167.018 152.356 167.018 152.045 166.704 151.837Z" fill="#24126A"/>
<path opacity="0.5" d="M172.878 155.363L168.902 153.082C168.588 152.875 168.065 152.875 167.751 153.082L164.089 155.26C163.775 155.467 163.67 155.778 164.089 155.985L168.065 158.266C168.379 158.474 168.902 158.474 169.216 158.266L172.878 156.089C173.192 155.882 173.192 155.571 172.878 155.363Z" fill="#24126A"/>
<path opacity="0.5" d="M178.947 158.888L174.971 156.607C174.657 156.4 174.134 156.4 173.82 156.607L170.158 158.785C169.844 158.992 169.739 159.303 170.158 159.51L174.134 161.791C174.448 161.999 174.971 161.999 175.285 161.791L178.947 159.614C179.261 159.407 179.261 159.096 178.947 158.888Z" fill="#24126A"/>
<path opacity="0.5" d="M185.121 162.414L181.145 160.133C180.831 159.926 180.308 159.926 179.994 160.133L176.332 162.31C176.018 162.518 175.913 162.829 176.332 163.036L180.308 165.317C180.622 165.525 181.145 165.525 181.459 165.317L185.121 163.14C185.435 162.829 185.435 162.518 185.121 162.414Z" fill="#24126A"/>
<path opacity="0.5" d="M191.19 165.835L187.214 163.554C186.9 163.347 186.377 163.347 186.063 163.554L182.4 165.732C182.086 165.939 181.982 166.25 182.4 166.457L186.377 168.738C186.69 168.946 187.214 168.946 187.528 168.738L191.19 166.561C191.504 166.354 191.504 166.043 191.19 165.835Z" fill="#24126A"/>
<path opacity="0.5" d="M197.363 169.361L193.387 167.08C193.073 166.872 192.55 166.872 192.236 167.08L188.573 169.257C188.26 169.465 188.155 169.776 188.573 169.983L192.55 172.264C192.864 172.471 193.387 172.471 193.701 172.264L197.363 170.087C197.677 169.879 197.677 169.568 197.363 169.361Z" fill="#24126A"/>
<path opacity="0.5" d="M203.433 172.886L199.457 170.605C199.143 170.397 198.619 170.397 198.306 170.605L194.643 172.782C194.329 172.989 194.225 173.3 194.643 173.508L198.619 175.789C198.933 175.996 199.457 175.996 199.77 175.789L203.433 173.611C203.747 173.404 203.747 173.093 203.433 172.886Z" fill="#24126A"/>
<path opacity="0.5" d="M209.606 176.411L205.629 174.13C205.315 173.923 204.792 173.923 204.478 174.13L200.816 176.308C200.502 176.515 200.398 176.826 200.816 177.033L204.792 179.314C205.106 179.522 205.629 179.522 205.943 179.314L209.606 177.137C209.815 176.826 209.919 176.515 209.606 176.411Z" fill="#24126A"/>
<path opacity="0.5" d="M215.676 179.833L211.699 177.552C211.386 177.344 210.862 177.344 210.548 177.552L206.886 179.729C206.572 179.937 206.468 180.248 206.886 180.455L210.862 182.736C211.176 182.943 211.699 182.943 212.013 182.736L215.676 180.559C215.99 180.351 215.99 180.04 215.676 179.833Z" fill="#24126A"/>
<path opacity="0.5" d="M166.391 132.346L154.671 125.71C154.357 125.503 153.834 125.503 153.52 125.71L149.858 127.888C149.544 128.095 149.44 128.406 149.858 128.613L161.577 135.249C161.891 135.457 162.414 135.457 162.728 135.249L166.391 133.072C166.705 132.864 166.809 132.553 166.391 132.346Z" fill="#24126A"/>
<path opacity="0.5" d="M241.624 175.375L229.905 168.739C229.591 168.531 229.067 168.531 228.754 168.739L225.091 170.916C224.777 171.124 224.673 171.435 225.091 171.642L236.811 178.278C237.124 178.485 237.648 178.485 237.962 178.278L241.624 176.1C241.938 175.789 241.938 175.478 241.624 175.375Z" fill="#24126A"/>
<path opacity="0.5" d="M230.324 161.481L226.348 159.199C226.034 158.992 225.511 158.992 225.197 159.199L220.802 161.792C220.488 161.999 220.383 162.31 220.802 162.517L224.778 164.798C225.092 165.006 225.615 165.006 225.929 164.798L230.324 162.206C230.533 161.999 230.638 161.688 230.324 161.481Z" fill="#24126A"/>
<path opacity="0.5" d="M185.853 136.078L179.47 132.449C179.156 132.242 178.633 132.242 178.319 132.449L173.924 135.042C173.611 135.249 173.506 135.56 173.924 135.767L180.307 139.396C180.621 139.604 181.144 139.604 181.458 139.396L185.853 136.804C186.167 136.597 186.167 136.286 185.853 136.078Z" fill="#24126A"/>
<path opacity="0.5" d="M224.36 158.163L217.977 154.534C217.663 154.326 217.14 154.326 216.826 154.534L212.431 157.126C212.117 157.333 212.013 157.644 212.431 157.852L218.814 161.481C219.128 161.688 219.651 161.688 219.965 161.481L224.36 158.888C224.674 158.681 224.674 158.37 224.36 158.163Z" fill="#24126A"/>
<path opacity="0.5" d="M194.643 141.159L188.26 137.53C187.946 137.323 187.423 137.323 187.109 137.53L182.715 140.122C182.401 140.33 182.296 140.641 182.715 140.848L189.097 144.477C189.411 144.684 189.934 144.684 190.248 144.477L194.643 141.885C194.957 141.677 194.957 141.366 194.643 141.159Z" fill="#24126A"/>
<path opacity="0.5" d="M182.713 140.848L210.233 156.608C210.547 156.815 211.07 156.815 211.384 156.608L215.883 154.016C216.197 153.808 216.197 153.497 215.883 153.29L188.364 137.53L182.713 140.848Z" fill="#24126A"/>
<path opacity="0.5" d="M241.52 171.227L245.915 173.715C246.125 173.819 246.648 173.819 246.857 173.715L248.636 172.679C248.95 172.471 248.95 172.264 248.636 172.16L244.241 169.672C244.032 169.568 243.509 169.568 243.299 169.672L241.52 170.709C241.311 170.812 241.311 171.123 241.52 171.227Z" fill="#24126A"/>
<path opacity="0.5" d="M235.346 167.701L239.741 170.19C239.95 170.293 240.473 170.293 240.683 170.19L242.461 169.153C242.775 168.946 242.775 168.738 242.461 168.635L238.067 166.146C237.857 166.042 237.334 166.042 237.125 166.146L235.346 167.183C235.137 167.287 235.137 167.598 235.346 167.701Z" fill="#24126A"/>
<path opacity="0.5" d="M229.278 164.176L233.673 166.665C233.882 166.768 234.406 166.768 234.615 166.665L236.394 165.628C236.708 165.42 236.708 165.213 236.394 165.109L231.999 162.621C231.79 162.517 231.266 162.517 231.057 162.621L229.278 163.658C228.964 163.761 228.964 164.073 229.278 164.176Z" fill="#24126A"/>
<path opacity="0.5" d="M232.208 169.568L236.602 172.056C236.812 172.16 237.335 172.16 237.544 172.056L239.323 171.02C239.637 170.812 239.637 170.605 239.323 170.501L234.928 168.013C234.719 167.909 234.196 167.909 233.986 168.013L232.208 169.05C231.998 169.153 231.894 169.361 232.208 169.568Z" fill="#24126A"/>
</g>
</g>
</g>
<path d="M78.811 172.99L74.8348 170.709C74.5209 170.502 74.5209 170.191 74.9395 169.983L79.5435 167.287C79.8574 167.08 80.4852 167.08 80.7991 167.287L84.7753 169.568C85.0892 169.776 85.0892 170.087 84.6707 170.294L80.0667 172.99C79.7528 173.197 79.1249 173.197 78.811 172.99Z" fill="#0011AA"/>
<path d="M84.8797 176.515L80.9034 174.234C80.5895 174.027 80.5895 173.716 81.0081 173.509L85.6121 170.813C85.926 170.605 86.5538 170.605 86.8678 170.813L90.8439 173.094C91.1578 173.301 91.1579 173.612 90.7393 173.82L86.1353 176.515C85.8214 176.619 85.1936 176.619 84.8797 176.515Z" fill="#0011AA"/>
<path d="M90.9499 179.936L86.9738 177.655C86.6598 177.448 86.6599 177.137 87.0784 176.929L91.6824 174.234C91.9963 174.026 92.6241 174.026 92.938 174.234L96.9143 176.515C97.2282 176.722 97.2282 177.033 96.8096 177.24L92.2056 179.936C91.8917 180.144 91.2639 180.144 90.9499 179.936Z" fill="#0011AA"/>
<path d="M99.3198 177.137L95.3436 174.856C95.0297 174.648 95.0297 174.337 95.4483 174.13L99.3198 171.953C99.6337 171.745 100.262 171.745 100.575 171.953L104.552 174.234C104.866 174.441 104.866 174.752 104.447 174.959L100.575 177.137C100.262 177.241 99.6337 177.241 99.3198 177.137Z" fill="#0011AA"/>
<path d="M105.389 180.559L101.413 178.278C101.099 178.07 101.099 177.759 101.518 177.552L105.389 175.375C105.703 175.167 106.331 175.167 106.645 175.375L110.621 177.656C110.935 177.863 110.935 178.174 110.516 178.381L106.645 180.559C106.331 180.766 105.703 180.766 105.389 180.559Z" fill="#0011AA"/>
<path d="M111.459 183.981L107.483 181.7C107.169 181.492 107.169 181.181 107.587 180.974L111.459 178.797C111.773 178.589 112.4 178.589 112.714 178.797L116.691 181.078C117.004 181.285 117.004 181.596 116.586 181.803L112.714 183.981C112.296 184.188 111.773 184.188 111.459 183.981Z" fill="#0011AA"/>
<path d="M117.526 187.505L113.55 185.224C113.236 185.017 113.236 184.706 113.654 184.498L117.526 182.321C117.84 182.114 118.468 182.114 118.782 182.321L122.758 184.602C123.072 184.809 123.072 185.121 122.653 185.328L118.782 187.505C118.363 187.609 117.84 187.713 117.526 187.505Z" fill="#0011AA"/>
<path d="M123.596 190.927L119.62 188.646C119.306 188.439 119.306 188.128 119.725 187.92L123.596 185.743C123.91 185.536 124.538 185.536 124.852 185.743L128.828 188.024C129.142 188.231 129.142 188.542 128.723 188.75L124.852 190.927C124.433 191.134 123.91 191.134 123.596 190.927Z" fill="#0011AA"/>
<path d="M129.665 194.452L125.689 192.171C125.375 191.964 125.375 191.653 125.793 191.445L129.665 189.268C129.979 189.06 130.607 189.06 130.92 189.268L134.897 191.549C135.211 191.756 135.211 192.067 134.792 192.275L130.92 194.452C130.502 194.556 129.979 194.659 129.665 194.452Z" fill="#0011AA"/>
<path d="M135.733 197.874L131.757 195.593C131.443 195.386 131.443 195.075 131.862 194.867L135.733 192.69C136.047 192.483 136.675 192.483 136.989 192.69L140.965 194.971C141.279 195.178 141.279 195.489 140.861 195.697L136.989 197.874C136.57 198.082 136.047 198.082 135.733 197.874Z" fill="#0011AA"/>
<path d="M141.803 201.399L137.827 199.118C137.513 198.911 137.513 198.6 137.931 198.392L141.803 196.215C142.117 196.007 142.744 196.007 143.058 196.215L147.035 198.496C147.348 198.703 147.348 199.014 146.93 199.222L143.058 201.399C142.64 201.503 142.117 201.503 141.803 201.399Z" fill="#0011AA"/>
<path d="M147.871 204.82L143.895 202.539C143.581 202.332 143.581 202.021 144 201.814L147.871 199.636C148.185 199.429 148.813 199.429 149.127 199.636L153.103 201.917C153.417 202.125 153.417 202.436 152.999 202.643L149.127 204.82C148.708 205.028 148.185 205.028 147.871 204.82Z" fill="#0011AA"/>
<path d="M153.941 208.346L149.964 206.065C149.651 205.857 149.651 205.546 150.069 205.339L153.941 203.162C154.255 202.954 154.882 202.954 155.196 203.162L159.173 205.443C159.486 205.65 159.486 205.961 159.068 206.168L155.196 208.346C154.778 208.45 154.255 208.45 153.941 208.346Z" fill="#0011AA"/>
<path d="M108.318 175.478L104.342 173.197C104.028 172.99 104.028 172.679 104.447 172.472L108.318 170.294C108.632 170.087 109.26 170.087 109.574 170.294L113.55 172.575C113.864 172.783 113.864 173.094 113.445 173.301L109.574 175.478C109.155 175.582 108.632 175.582 108.318 175.478Z" fill="#0011AA"/>
<path d="M102.145 171.953L98.1691 169.671C97.8552 169.464 97.8552 169.153 98.2737 168.946L102.145 166.768C102.459 166.561 103.087 166.561 103.401 166.768L107.377 169.049C107.691 169.257 107.691 169.568 107.272 169.775L103.401 171.953C102.982 172.056 102.459 172.16 102.145 171.953Z" fill="#0011AA"/>
<path d="M95.9713 168.428L87.4957 163.555C87.1818 163.347 87.1818 163.036 87.6004 162.829L91.4719 160.652C91.7858 160.444 92.4137 160.444 92.7276 160.652L101.203 165.525C101.517 165.732 101.517 166.043 101.099 166.251L97.2269 168.428C96.8084 168.532 96.2852 168.635 95.9713 168.428Z" fill="#0011AA"/>
<path d="M100.262 164.073L93.3563 160.133C93.0424 159.926 93.0424 159.614 93.461 159.407L97.3325 157.23C97.6464 157.022 98.2743 157.022 98.5882 157.23L105.494 161.17C105.808 161.377 105.808 161.688 105.39 161.896L101.518 164.073C101.099 164.28 100.576 164.28 100.262 164.073Z" fill="#0011AA"/>
<path d="M114.388 178.9L110.412 176.618C110.098 176.411 110.098 176.1 110.516 175.893L114.388 173.715C114.702 173.508 115.329 173.508 115.643 173.715L119.62 175.996C119.933 176.204 119.933 176.515 119.515 176.722L115.643 178.9C115.225 179.107 114.702 179.107 114.388 178.9Z" fill="#0011AA"/>
<path d="M120.456 182.425L116.48 180.144C116.166 179.936 116.166 179.625 116.585 179.418L120.456 177.24C120.77 177.033 121.398 177.033 121.712 177.24L125.688 179.522C126.002 179.729 126.002 180.04 125.583 180.247L121.712 182.425C121.293 182.528 120.77 182.528 120.456 182.425Z" fill="#0011AA"/>
<path d="M126.419 185.847L122.443 183.566C122.129 183.359 122.129 183.048 122.548 182.84L126.419 180.663C126.733 180.455 127.361 180.455 127.675 180.663L131.651 182.944C131.965 183.151 131.965 183.462 131.547 183.67L127.675 185.847C127.361 186.054 126.733 186.054 126.419 185.847Z" fill="#0011AA"/>
<path d="M132.49 189.372L128.514 187.091C128.2 186.884 128.2 186.572 128.618 186.365L132.49 184.188C132.804 183.98 133.431 183.98 133.745 184.188L137.722 186.469C138.036 186.676 138.036 186.987 137.617 187.195L133.745 189.372C133.431 189.476 132.804 189.476 132.49 189.372Z" fill="#0011AA"/>
<path d="M138.558 192.793L134.582 190.512C134.268 190.305 134.268 189.994 134.687 189.787L138.558 187.609C138.872 187.402 139.5 187.402 139.814 187.609L143.79 189.89C144.104 190.098 144.104 190.409 143.686 190.616L139.814 192.793C139.5 192.897 138.872 193.001 138.558 192.793Z" fill="#0011AA"/>
<path d="M144.628 196.215L140.651 193.934C140.338 193.726 140.338 193.415 140.756 193.208L144.628 191.031C144.942 190.823 145.569 190.823 145.883 191.031L149.86 193.312C150.173 193.519 150.173 193.83 149.755 194.037L145.883 196.215C145.569 196.422 144.942 196.422 144.628 196.215Z" fill="#0011AA"/>
<path d="M150.697 199.74L146.721 197.459C146.407 197.252 146.407 196.941 146.826 196.733L150.697 194.556C151.011 194.349 151.639 194.349 151.953 194.556L155.929 196.837C156.243 197.044 156.243 197.355 155.824 197.563L151.953 199.74C151.534 199.844 151.011 199.947 150.697 199.74Z" fill="#0011AA"/>
<path d="M156.766 203.162L152.79 200.881C152.476 200.673 152.476 200.362 152.894 200.155L156.766 197.978C157.08 197.77 157.708 197.77 158.022 197.978L161.998 200.259C162.312 200.466 162.312 200.777 161.893 200.984L158.022 203.162C157.603 203.369 157.08 203.369 156.766 203.162Z" fill="#0011AA"/>
<path d="M162.834 206.687L158.858 204.406C158.544 204.198 158.544 203.887 158.963 203.68L162.834 201.502C163.148 201.295 163.776 201.295 164.09 201.502L168.066 203.783C168.38 203.991 168.38 204.302 167.961 204.509L164.09 206.687C163.671 206.79 163.148 206.79 162.834 206.687Z" fill="#0011AA"/>
<path d="M173.612 212.805L165.032 207.931C164.718 207.724 164.718 207.413 165.136 207.206L169.008 205.028C169.322 204.821 169.95 204.821 170.263 205.028L178.844 209.901C179.158 210.109 179.158 210.42 178.739 210.627L174.867 212.805C174.449 213.012 173.926 213.012 173.612 212.805Z" fill="#0011AA"/>
<path d="M185.436 206.065L178.216 201.918C177.902 201.71 177.902 201.399 178.32 201.192L182.192 199.014C182.506 198.807 183.134 198.807 183.448 199.014L190.668 203.162C190.981 203.369 190.981 203.68 190.563 203.888L186.691 206.065C186.273 206.272 185.75 206.272 185.436 206.065Z" fill="#0011AA"/>
<path d="M124.955 178.277L120.979 175.996C120.665 175.789 120.665 175.478 121.084 175.27L124.955 173.093C125.269 172.886 125.897 172.886 126.211 173.093L130.187 175.374C130.501 175.581 130.501 175.893 130.082 176.1L126.211 178.277C125.792 178.381 125.269 178.381 124.955 178.277Z" fill="#0011AA"/>
<path d="M118.782 174.649L114.806 172.368C114.492 172.161 114.492 171.85 114.911 171.642L118.782 169.465C119.096 169.258 119.724 169.258 120.038 169.465L124.014 171.746C124.328 171.954 124.328 172.265 123.909 172.472L120.038 174.649C119.619 174.857 119.096 174.857 118.782 174.649Z" fill="#0011AA"/>
<path d="M112.504 171.123L108.528 168.842C108.214 168.635 108.214 168.323 108.632 168.116L112.504 165.939C112.818 165.731 113.446 165.731 113.76 165.939L117.736 168.22C118.05 168.427 118.05 168.738 117.631 168.946L113.76 171.123C113.446 171.33 112.818 171.33 112.504 171.123Z" fill="#0011AA"/>
<path d="M106.331 167.599L102.354 165.317C102.04 165.11 102.04 164.799 102.459 164.592L106.331 162.414C106.644 162.207 107.272 162.207 107.586 162.414L111.562 164.695C111.876 164.903 111.876 165.214 111.458 165.421L107.586 167.599C107.168 167.702 106.644 167.806 106.331 167.599Z" fill="#0011AA"/>
<path d="M131.026 181.699L127.049 179.418C126.736 179.211 126.736 178.9 127.154 178.692L131.026 176.515C131.34 176.308 131.967 176.308 132.281 176.515L136.257 178.796C136.571 179.003 136.571 179.314 136.153 179.522L132.281 181.699C131.863 181.906 131.34 181.906 131.026 181.699Z" fill="#0011AA"/>
<path d="M137.094 185.224L133.118 182.943C132.804 182.736 132.804 182.425 133.222 182.218L137.094 180.04C137.408 179.833 138.036 179.833 138.35 180.04L142.326 182.321C142.64 182.529 142.64 182.84 142.221 183.047L138.35 185.224C137.931 185.328 137.408 185.328 137.094 185.224Z" fill="#0011AA"/>
<path d="M143.163 188.646L139.186 186.365C138.872 186.158 138.872 185.847 139.291 185.639L143.163 183.462C143.476 183.255 144.104 183.255 144.418 183.462L148.394 185.743C148.708 185.95 148.708 186.261 148.29 186.469L144.418 188.646C144 188.75 143.476 188.853 143.163 188.646Z" fill="#0011AA"/>
<path d="M149.232 192.068L145.256 189.786C144.942 189.579 144.942 189.268 145.361 189.061L149.232 186.883C149.546 186.676 150.174 186.676 150.488 186.883L154.464 189.164C154.778 189.372 154.778 189.683 154.359 189.89L150.488 192.068C150.069 192.275 149.546 192.275 149.232 192.068Z" fill="#0011AA"/>
<path d="M155.301 195.593L151.324 193.312C151.01 193.104 151.01 192.793 151.429 192.586L155.301 190.409C155.614 190.201 156.242 190.201 156.556 190.409L160.532 192.69C160.846 192.897 160.846 193.208 160.428 193.416L156.556 195.593C156.138 195.697 155.614 195.8 155.301 195.593Z" fill="#0011AA"/>
<path d="M161.37 199.014L157.394 196.733C157.08 196.526 157.08 196.215 157.499 196.007L161.37 193.83C161.684 193.623 162.312 193.623 162.626 193.83L166.602 196.111C166.916 196.319 166.916 196.63 166.497 196.837L162.626 199.014C162.207 199.222 161.684 199.222 161.37 199.014Z" fill="#0011AA"/>
<path d="M167.439 202.539L163.463 200.258C163.149 200.051 163.149 199.74 163.568 199.532L167.439 197.355C167.753 197.148 168.381 197.148 168.695 197.355L172.671 199.636C172.985 199.843 172.985 200.154 172.566 200.362L168.695 202.539C168.276 202.643 167.753 202.643 167.439 202.539Z" fill="#0011AA"/>
<path d="M173.402 205.961L169.53 203.784C169.216 203.577 169.216 203.266 169.635 203.058L173.507 200.881C173.82 200.673 174.448 200.673 174.762 200.881L178.738 203.162C179.052 203.369 179.052 203.68 178.634 203.888L174.762 206.065C174.344 206.169 173.716 206.169 173.402 205.961Z" fill="#0011AA"/>
<path d="M179.472 209.487L175.495 207.206C175.182 206.998 175.182 206.687 175.6 206.48L179.472 204.302C179.786 204.095 180.413 204.095 180.727 204.302L184.704 206.584C185.017 206.791 185.017 207.102 184.599 207.309L180.727 209.487C180.413 209.59 179.786 209.59 179.472 209.487Z" fill="#0011AA"/>
<path d="M121.817 169.672L117.841 167.391C117.527 167.184 117.527 166.873 117.945 166.665L121.817 164.488C122.131 164.28 122.759 164.28 123.073 164.488L127.049 166.769C127.363 166.976 127.363 167.287 126.944 167.495L123.073 169.672C122.654 169.776 122.131 169.879 121.817 169.672Z" fill="#0011AA"/>
<path d="M115.748 166.25L111.772 163.969C111.458 163.762 111.458 163.451 111.876 163.244L115.748 161.066C116.062 160.859 116.69 160.859 117.004 161.066L120.98 163.347C121.294 163.555 121.294 163.866 120.875 164.073L117.004 166.25C116.585 166.354 116.062 166.354 115.748 166.25Z" fill="#0011AA"/>
<path d="M109.679 162.725L105.703 160.444C105.389 160.237 105.389 159.926 105.807 159.718L109.679 157.541C109.993 157.333 110.621 157.333 110.935 157.541L114.911 159.822C115.225 160.029 115.225 160.34 114.806 160.548L110.935 162.725C110.621 162.932 109.993 162.932 109.679 162.725Z" fill="#0011AA"/>
<path d="M103.714 159.303L99.7377 157.022C99.4238 156.815 99.4238 156.504 99.8423 156.296L103.714 154.119C104.028 153.912 104.656 153.912 104.97 154.119L108.946 156.4C109.26 156.607 109.26 156.918 108.841 157.126L104.97 159.303C104.551 159.51 104.028 159.51 103.714 159.303Z" fill="#0011AA"/>
<path d="M109.889 155.778L105.912 153.497C105.599 153.29 105.599 152.979 106.017 152.771L107.273 152.045C107.587 151.838 108.215 151.838 108.528 152.045L112.505 154.326C112.819 154.534 112.819 154.845 112.4 155.052L111.144 155.778C110.726 155.882 110.203 155.985 109.889 155.778Z" fill="#0011AA"/>
<path d="M117.737 160.237L113.761 157.955C113.447 157.748 113.447 157.437 113.865 157.23L115.121 156.504C115.435 156.297 116.063 156.297 116.377 156.504L120.353 158.785C120.667 158.992 120.667 159.303 120.248 159.511L118.993 160.237C118.574 160.444 118.051 160.444 117.737 160.237Z" fill="#0011AA"/>
<path d="M123.804 163.658L119.828 161.377C119.514 161.17 119.514 160.859 119.933 160.651L121.189 159.926C121.502 159.718 122.13 159.718 122.444 159.926L126.42 162.207C126.734 162.414 126.734 162.725 126.316 162.932L125.06 163.658C124.642 163.866 124.118 163.866 123.804 163.658Z" fill="#0011AA"/>
<path d="M129.769 167.183L125.793 164.902C125.479 164.695 125.479 164.384 125.897 164.176L127.153 163.451C127.467 163.243 128.095 163.243 128.409 163.451L132.385 165.732C132.699 165.939 132.699 166.25 132.28 166.458L131.025 167.183C130.606 167.287 130.083 167.287 129.769 167.183Z" fill="#0011AA"/>
<path d="M135.733 170.605L131.757 168.324C131.443 168.117 131.443 167.805 131.862 167.598L133.118 166.872C133.431 166.665 134.059 166.665 134.373 166.872L138.349 169.153C138.663 169.361 138.663 169.672 138.245 169.879L136.989 170.605C136.675 170.709 136.047 170.709 135.733 170.605Z" fill="#0011AA"/>
<path d="M169.322 189.786L165.346 187.505C165.032 187.298 165.032 186.987 165.451 186.78L166.706 186.054C167.02 185.846 167.648 185.846 167.962 186.054L171.938 188.335C172.252 188.542 172.252 188.853 171.834 189.061L170.578 189.786C170.159 189.89 169.636 189.89 169.322 189.786Z" fill="#0011AA"/>
<path d="M175.286 193.208L171.31 190.927C170.996 190.72 170.996 190.409 171.414 190.201L172.67 189.475C172.984 189.268 173.612 189.268 173.926 189.475L177.902 191.756C178.216 191.964 178.216 192.275 177.797 192.482L176.542 193.208C176.123 193.312 175.6 193.415 175.286 193.208Z" fill="#0011AA"/>
<path d="M181.355 196.629L177.379 194.348C177.065 194.141 177.065 193.83 177.484 193.623L178.74 192.897C179.053 192.689 179.681 192.689 179.995 192.897L183.971 195.178C184.285 195.385 184.285 195.696 183.867 195.904L182.611 196.629C182.193 196.837 181.669 196.837 181.355 196.629Z" fill="#0011AA"/>
<path d="M187.32 200.051L183.343 197.77C183.029 197.562 183.029 197.251 183.448 197.044L184.704 196.318C185.018 196.111 185.645 196.111 185.959 196.318L189.936 198.599C190.249 198.807 190.249 199.118 189.831 199.325L188.575 200.051C188.157 200.258 187.633 200.258 187.32 200.051Z" fill="#0011AA"/>
<path d="M127.78 173.093L123.804 170.812C123.49 170.605 123.49 170.294 123.908 170.086L127.78 167.909C128.094 167.702 128.722 167.702 129.036 167.909L133.012 170.19C133.326 170.397 133.326 170.708 132.907 170.916L129.036 173.093C128.722 173.301 128.094 173.301 127.78 173.093Z" fill="#0011AA"/>
<path d="M133.851 176.618L129.874 174.337C129.56 174.13 129.56 173.819 129.979 173.611L133.851 171.434C134.164 171.227 134.792 171.227 135.106 171.434L139.082 173.715C139.396 173.923 139.396 174.234 138.978 174.441L135.106 176.618C134.792 176.722 134.164 176.826 133.851 176.618Z" fill="#0011AA"/>
<path d="M139.919 180.04L136.047 177.863C135.733 177.656 135.733 177.345 136.152 177.137L140.023 174.96C140.337 174.753 140.965 174.753 141.279 174.96L145.255 177.241C145.569 177.448 145.569 177.759 145.151 177.967L141.279 180.144C140.861 180.248 140.233 180.248 139.919 180.04Z" fill="#0011AA"/>
<path d="M145.989 183.566L142.012 181.285C141.698 181.077 141.698 180.766 142.117 180.559L145.989 178.382C146.302 178.174 146.93 178.174 147.244 178.382L151.22 180.663C151.534 180.87 151.534 181.181 151.116 181.388L147.244 183.566C146.93 183.669 146.302 183.669 145.989 183.566Z" fill="#0011AA"/>
<path d="M152.057 186.987L148.081 184.706C147.767 184.499 147.767 184.188 148.186 183.98L152.057 181.803C152.371 181.596 152.999 181.596 153.313 181.803L157.289 184.084C157.603 184.291 157.603 184.602 157.184 184.81L153.313 186.987C152.894 187.195 152.371 187.195 152.057 186.987Z" fill="#0011AA"/>
<path d="M158.126 190.513L154.15 188.232C153.836 188.024 153.836 187.713 154.254 187.506L158.126 185.328C158.44 185.121 159.067 185.121 159.381 185.328L163.358 187.609C163.672 187.817 163.671 188.128 163.253 188.335L159.381 190.513C158.963 190.616 158.44 190.616 158.126 190.513Z" fill="#0011AA"/>
<path d="M164.195 193.934L160.219 191.653C159.905 191.446 159.905 191.135 160.324 190.927L164.195 188.75C164.509 188.542 165.137 188.542 165.451 188.75L169.427 191.031C169.741 191.238 169.741 191.549 169.322 191.757L165.451 193.934C165.032 194.141 164.509 194.141 164.195 193.934Z" fill="#0011AA"/>
<path d="M170.263 197.355L166.287 195.074C165.973 194.867 165.973 194.556 166.392 194.348L170.263 192.171C170.577 191.964 171.205 191.964 171.519 192.171L175.495 194.452C175.809 194.659 175.809 194.97 175.39 195.178L171.519 197.355C171.1 197.562 170.577 197.562 170.263 197.355Z" fill="#0011AA"/>
<path d="M176.332 200.881L172.356 198.6C172.042 198.393 172.042 198.082 172.461 197.874L176.332 195.697C176.646 195.489 177.274 195.489 177.588 195.697L181.564 197.978C181.878 198.185 181.878 198.496 181.459 198.704L177.588 200.881C177.169 200.985 176.646 201.088 176.332 200.881Z" fill="#0011AA"/>
<path d="M93.1459 173.508L81.6359 166.872C81.322 166.665 81.322 166.354 81.7405 166.147L85.6121 163.969C85.926 163.762 86.5538 163.762 86.8677 163.969L98.3778 170.605C98.6917 170.812 98.6917 171.123 98.2731 171.331L94.4016 173.508C94.0877 173.716 93.4598 173.716 93.1459 173.508Z" fill="#0011AA"/>
<path d="M167.648 216.123L156.138 209.487C155.824 209.28 155.824 208.968 156.243 208.761L160.114 206.584C160.428 206.376 161.056 206.376 161.37 206.584L172.88 213.22C173.194 213.427 173.194 213.738 172.775 213.945L168.904 216.123C168.485 216.33 167.962 216.33 167.648 216.123Z" fill="#0011AA"/>
<path d="M143.372 209.901L139.396 207.62C139.082 207.413 139.082 207.102 139.501 206.894L144.105 204.198C144.419 203.991 145.047 203.991 145.36 204.198L149.337 206.48C149.651 206.687 149.651 206.998 149.232 207.205L144.628 209.901C144.314 210.108 143.686 210.108 143.372 209.901Z" fill="#0011AA"/>
<path d="M99.4243 184.81L93.1461 181.181C92.8322 180.973 92.8322 180.662 93.2508 180.455L97.8548 177.759C98.1687 177.552 98.7965 177.552 99.1104 177.759L105.389 181.388C105.703 181.595 105.703 181.906 105.284 182.114L100.68 184.81C100.261 184.913 99.7382 184.913 99.4243 184.81Z" fill="#0011AA"/>
<path d="M137.511 206.583L131.233 202.955C130.919 202.747 130.919 202.436 131.338 202.229L135.942 199.533C136.256 199.326 136.884 199.326 137.198 199.533L143.476 203.162C143.79 203.369 143.79 203.68 143.371 203.888L138.767 206.583C138.453 206.791 137.825 206.791 137.511 206.583Z" fill="#0011AA"/>
<path d="M108.11 189.787L101.831 186.158C101.518 185.95 101.518 185.639 101.936 185.432L106.54 182.736C106.854 182.529 107.482 182.529 107.796 182.736L114.074 186.365C114.388 186.572 114.388 186.883 113.969 187.091L109.365 189.787C108.947 189.89 108.424 189.994 108.11 189.787Z" fill="#0011AA"/>
<path d="M107.795 182.84L135.105 198.496C135.419 198.704 135.419 199.015 135.105 199.222L130.397 201.918C130.083 202.125 129.559 202.125 129.141 201.918L101.935 186.158L107.795 182.84Z" fill="#0011AA"/>
<path d="M160.324 216.226L164.719 218.715C164.928 218.818 164.928 219.129 164.614 219.337L162.731 220.374C162.417 220.581 161.999 220.581 161.685 220.374L157.29 217.885C157.081 217.781 157.081 217.47 157.395 217.263L159.278 216.226C159.592 216.123 160.115 216.123 160.324 216.226Z" fill="#0011AA"/>
<path d="M154.254 212.7L158.649 215.189C158.858 215.292 158.858 215.603 158.544 215.811L156.66 216.848C156.347 217.055 155.928 217.055 155.614 216.848L151.219 214.359C151.01 214.256 151.01 213.945 151.324 213.737L153.207 212.7C153.521 212.597 153.94 212.597 154.254 212.7Z" fill="#0011AA"/>
<path d="M148.185 209.279L152.58 211.767C152.789 211.871 152.789 212.182 152.475 212.389L150.592 213.426C150.278 213.633 149.859 213.633 149.545 213.426L145.151 210.938C144.941 210.834 144.941 210.523 145.255 210.316L147.139 209.279C147.453 209.175 147.871 209.175 148.185 209.279Z" fill="#0011AA"/>
<path d="M157.602 210.835L161.997 213.323C162.206 213.427 162.206 213.738 161.892 213.945L160.009 214.982C159.695 215.189 159.276 215.189 158.962 214.982L154.568 212.494C154.358 212.39 154.358 212.079 154.672 211.871L156.556 210.835C156.87 210.731 157.288 210.627 157.602 210.835Z" fill="#0011AA"/>
<path d="M219.443 117.415C219.129 117.415 218.816 117.312 218.502 117.104C217.56 116.586 217.037 115.342 217.246 114.409C217.351 113.994 217.665 113.579 217.978 113.475C218.397 113.268 218.92 113.372 219.443 113.579C220.385 114.097 220.908 115.342 220.699 116.275C220.594 116.69 220.28 117.104 219.967 117.208C219.757 117.312 219.548 117.415 219.443 117.415ZM218.502 113.786C218.397 113.786 218.292 113.786 218.083 113.89C217.769 113.994 217.665 114.201 217.56 114.616C217.351 115.445 217.874 116.378 218.606 116.793C219.025 117.001 219.339 117.104 219.653 116.897C219.967 116.793 220.071 116.586 220.176 116.171C220.385 115.342 219.862 114.408 219.129 113.994C219.025 113.89 218.711 113.786 218.502 113.786Z" fill="#00AA1B"/>
<path d="M224.362 120.215C224.048 120.215 223.734 120.111 223.42 119.904C222.478 119.386 221.955 118.141 222.164 117.208C222.269 116.794 222.583 116.379 222.897 116.275C223.315 116.068 223.839 116.171 224.362 116.379C225.304 116.897 225.827 118.141 225.617 119.075C225.513 119.489 225.199 119.904 224.885 120.008C224.78 120.215 224.571 120.215 224.362 120.215ZM223.525 116.69C223.42 116.69 223.315 116.69 223.106 116.794C222.792 116.897 222.688 117.105 222.583 117.519C222.374 118.349 222.897 119.282 223.629 119.697C224.048 119.904 224.362 120.008 224.676 119.8C224.99 119.697 225.094 119.489 225.199 119.075C225.408 118.245 224.885 117.312 224.153 116.897C223.943 116.69 223.734 116.69 223.525 116.69Z" fill="#00AA1B"/>
<path d="M230.535 121.978C230.326 122.807 229.489 123.118 228.652 122.704C227.815 122.185 227.291 121.148 227.501 120.215C227.71 119.386 228.547 119.075 229.384 119.489C230.221 120.008 230.744 121.148 230.535 121.978Z" fill="#00AA1B"/>
<path d="M134.687 67.3361L131.966 65.7808L132.176 64.5366L134.896 66.0919L134.687 67.3361Z" fill="#00AA1B"/>
<path d="M138.558 69.5129L135.942 68.0613L136.152 66.8171L138.768 68.3724L138.558 69.5129Z" fill="#00AA1B"/>
<path d="M130.817 65.1585L124.957 61.737L125.166 60.5964L131.026 63.9143L130.817 65.1585Z" fill="#00AA1B"/>
<path d="M188.785 142.506C188.158 142.506 187.425 142.299 186.797 141.884L149.547 120.629C147.245 119.385 145.989 116.274 146.721 113.682C147.035 112.438 147.872 111.505 148.919 111.09C149.965 110.675 151.116 110.779 152.267 111.401L189.518 132.656C191.82 133.901 193.075 137.011 192.343 139.603C192.029 140.847 191.192 141.781 190.146 142.195C189.622 142.403 189.204 142.506 188.785 142.506ZM150.279 111.298C149.86 111.298 149.547 111.401 149.128 111.505C148.186 111.92 147.454 112.749 147.14 113.89C146.512 116.274 147.663 119.177 149.756 120.318L187.007 141.573C187.948 142.092 188.995 142.195 189.936 141.884C190.878 141.47 191.611 140.64 191.924 139.5C192.552 137.115 191.401 134.212 189.309 133.071L152.058 111.816C151.43 111.401 150.802 111.298 150.279 111.298Z" fill="white"/>
<path d="M110.517 122.392V160.652C110.517 161.481 111.04 162.311 112.086 162.829L144.21 181.181C146.512 182.529 150.593 182.322 153.209 180.766C154.674 179.937 155.406 178.796 155.406 177.76V139.5L110.517 122.392Z" fill="#00AA1B"/>
<path opacity="0.3" d="M146.617 182.01C148.814 182.321 151.326 181.907 153.209 180.87C154.674 180.04 155.407 178.9 155.407 177.863V139.604L146.722 136.286H146.512V182.01H146.617Z" fill="#146A12"/>
<path d="M144.209 142.922L112.086 124.57C109.784 123.222 110.097 120.941 112.713 119.386C115.434 117.831 119.41 117.727 121.712 118.971L153.836 137.427C156.138 138.775 155.824 141.056 153.208 142.611C150.487 144.166 146.511 144.27 144.209 142.922Z" fill="#D1FFD9"/>
<path opacity="0.5" d="M144.209 196.319L112.086 177.967C109.784 176.619 110.097 174.338 112.713 172.783C115.434 171.228 119.41 171.124 121.712 172.368L153.836 190.72C156.138 192.068 155.824 194.349 153.208 195.904C150.487 197.46 146.511 197.667 144.209 196.319Z" fill="#24126A"/>
<path d="M147.349 140.537C145.779 140.537 144.524 139.293 144.524 137.738V120.733C144.524 114.927 140.234 107.566 135.211 104.662L127.887 100.411C125.898 99.2709 124.224 99.0635 123.073 99.6857C121.922 100.308 121.294 101.967 121.294 104.144V121.148C121.294 122.703 120.039 123.948 118.469 123.948C116.9 123.948 115.644 122.703 115.644 121.148V104.248C115.644 99.893 117.214 96.6788 120.143 95.0199C123.073 93.3609 126.736 93.5683 130.502 95.7457L137.827 99.9967C144.628 103.937 149.965 113.061 149.965 120.837V137.841C150.174 139.293 148.919 140.537 147.349 140.537Z" fill="url(#paint5_linear)"/>
<path d="M134.568 150.413C134.568 152.787 134.568 155.705 133.868 158.078C133.479 159.362 132.896 160.412 132.117 161.112C131.223 161.968 130.056 162.435 128.655 162.552C128.616 162.552 128.577 162.552 128.499 162.552C128.421 162.552 128.344 162.513 128.305 162.513C128.227 162.474 128.149 162.435 128.11 162.396C128.071 162.357 127.994 162.318 127.955 162.279C126.476 160.957 125.27 159.4 124.298 157.689C123.442 156.171 122.819 154.46 122.391 152.67C121.613 149.363 121.73 146.134 121.808 143.566V143.527C121.808 143.333 121.847 143.099 121.847 142.866C121.885 141.66 122.625 141.076 123.519 141.504C125.348 142.399 126.749 142.399 127.955 141.504C128.344 141.232 128.888 141.582 129.238 142.282C130.328 144.461 131.612 145.939 133.207 146.99C133.946 147.496 134.53 148.741 134.53 149.83C134.568 150.024 134.568 150.219 134.568 150.413ZM124.57 150.024C124.531 153.02 126.243 156.249 128.344 157.222C130.367 158.156 132.001 156.599 132.04 153.798C132.079 150.997 130.522 147.846 128.499 146.756C126.437 145.589 124.648 147.029 124.57 150.024ZM125.504 150.491C125.543 148.235 126.904 147.107 128.499 147.962C130.056 148.779 131.262 151.192 131.223 153.37C131.184 155.51 129.939 156.716 128.383 155.977C126.787 155.199 125.465 152.748 125.504 150.491ZM128.071 153.915L130.133 152.047C130.289 151.892 130.328 151.503 130.133 151.192C129.978 150.88 129.705 150.725 129.511 150.88L127.76 152.437L127.293 151.542C127.138 151.192 126.826 151.075 126.671 151.23C126.476 151.386 126.476 151.775 126.671 152.125L127.449 153.643C127.527 153.798 127.643 153.915 127.76 153.993C127.877 153.993 127.955 153.993 128.071 153.915Z" fill="white"/>
<defs>
<linearGradient id="paint0_linear" x1="244.817" y1="123.92" x2="100.533" y2="123.92" gradientUnits="userSpaceOnUse">
<stop stop-color="#C0BFF6"/>
<stop offset="0.2938" stop-color="#C5C4F7"/>
<stop offset="0.6399" stop-color="#D3D2F9"/>
<stop offset="1" stop-color="#E9E9FD"/>
</linearGradient>
<linearGradient id="paint1_linear" x1="244.816" y1="160.585" x2="220.041" y2="160.585" gradientUnits="userSpaceOnUse">
<stop stop-color="#5761D7"/>
<stop offset="0.1779" stop-color="#5C66D9"/>
<stop offset="0.3876" stop-color="#6A73DF"/>
<stop offset="0.6134" stop-color="#8289E8"/>
<stop offset="0.849" stop-color="#A3A7F5"/>
<stop offset="1" stop-color="#BCBEFF"/>
</linearGradient>
<linearGradient id="paint2_linear" x1="224.318" y1="199.812" x2="20.5426" y2="199.812" gradientUnits="userSpaceOnUse">
<stop stop-color="#0011AA"/>
<stop offset="0.1779" stop-color="#0011AA"/>
<stop offset="0.3876" stop-color="#3D4DD6"/>
<stop offset="0.6134" stop-color="#7782E6"/>
<stop offset="0.849" stop-color="#787DE7"/>
<stop offset="1" stop-color="#7F82E9"/>
</linearGradient>
<linearGradient id="paint3_linear" x1="303.064" y1="154.984" x2="99.2889" y2="154.984" gradientUnits="userSpaceOnUse">
<stop stop-color="#5761D7"/>
<stop offset="0.1779" stop-color="#5C66D9"/>
<stop offset="0.3876" stop-color="#6A73DF"/>
<stop offset="0.6134" stop-color="#8289E8"/>
<stop offset="0.849" stop-color="#A3A7F5"/>
<stop offset="1" stop-color="#BCBEFF"/>
</linearGradient>
<linearGradient id="paint4_linear" x1="234.596" y1="149.464" x2="30.7118" y2="149.464" gradientUnits="userSpaceOnUse">
<stop stop-color="#C0BFF6"/>
<stop offset="0.2938" stop-color="#C5C4F7"/>
<stop offset="0.6399" stop-color="#D3D2F9"/>
<stop offset="1" stop-color="#E9E9FD"/>
</linearGradient>
<linearGradient id="paint5_linear" x1="99.4296" y1="110.935" x2="179.609" y2="124.831" gradientUnits="userSpaceOnUse">
<stop stop-color="#9DF3A6"/>
<stop offset="0.1443" stop-color="#96F09A"/>
<stop offset="0.3696" stop-color="#6FE46D"/>
<stop offset="0.6461" stop-color="#54D652"/>
<stop offset="0.873" stop-color="#2FC747"/>
</linearGradient>
</defs>
</svg>
