<svg width="150" height="40" viewBox="0 0 150 40" fill="none" xmlns="http://www.w3.org/2000/svg">
<circle cx="19.5" cy="20.5" r="11.5" fill="white"/>
<g clip-path="url(#clip0)">
<path fill-rule="evenodd" clip-rule="evenodd" d="M36.9899 10.8219L36.9912 10.853C37.0803 15.5515 37.1911 21.3989 35.2312 26.7123C34.1567 29.6262 32.5307 32.1591 30.3988 34.2413C27.9717 36.6116 24.7933 38.4945 20.9521 39.8379C20.8264 39.8819 20.6954 39.9176 20.563 39.9441C20.3765 39.9813 20.1882 40 20.0002 40C19.8123 40 19.6243 39.9813 19.4375 39.9441C19.3051 39.9176 19.175 39.8822 19.0499 39.8385C15.2041 38.4976 12.0224 36.6156 9.59317 34.245C7.4603 32.1634 5.83433 29.631 4.76072 26.7178C2.80821 21.4203 2.9193 15.5838 3.00871 10.8942L3.01054 10.8219C3.02794 10.4349 3.03984 10.0284 3.04656 9.57921C3.07921 7.37341 4.83274 5.54907 7.03824 5.42609C11.6372 5.16913 15.195 3.6695 18.2348 0.706556L18.2607 0.681837C19.2526 -0.227279 20.7482 -0.227279 21.7397 0.681837L21.7657 0.706556C24.8055 3.6695 28.3633 5.16913 32.9622 5.42578C35.168 5.54907 36.9213 7.37341 36.9539 9.57891C36.9609 10.0312 36.9725 10.4377 36.9899 10.8219ZM10.0311 20.0006C10.0311 25.4974 14.5028 29.9692 19.9996 29.9692C25.4961 29.9692 29.9682 25.4974 29.9682 20.0006C29.9682 14.5038 25.4961 10.0321 19.9996 10.0321C14.5028 10.0321 10.0311 14.5038 10.0311 20.0006ZM12.3782 20.0005C12.3782 15.7983 15.7971 12.3794 19.9997 12.3794C24.202 12.3794 27.6208 15.7983 27.6208 20.0005C27.6208 24.2031 24.202 27.622 19.9997 27.622C15.7971 27.622 12.3782 24.2031 12.3782 20.0005ZM19.0646 24.0252L24.5245 18.5653C24.9829 18.1069 24.9829 17.3638 24.5245 16.9058C24.0662 16.4474 23.3231 16.4474 22.865 16.9058L18.2346 21.5359L16.9778 20.2792C16.5195 19.8208 15.7764 19.8208 15.3183 20.2792C14.8599 20.7375 14.8599 21.4807 15.3183 21.9387L17.4048 24.0252C17.634 24.2547 17.9343 24.3691 18.2346 24.3691C18.5349 24.3691 18.8354 24.2544 19.0646 24.0252Z" fill="#0011AA"/>
</g>
<path d="M53.032 12.28C54.408 12.28 55.8 12.552 57.208 13.096L56.584 16.36L56.008 16.576C55.4 16.176 54.792 15.864 54.184 15.64C53.576 15.416 53.048 15.304 52.6 15.304C52.072 15.304 51.648 15.44 51.328 15.712C51.024 15.968 50.872 16.272 50.872 16.624C50.872 17.024 51.064 17.368 51.448 17.656C51.848 17.928 52.472 18.256 53.32 18.64C54.216 19.056 54.936 19.44 55.48 19.792C56.04 20.128 56.52 20.584 56.92 21.16C57.336 21.736 57.544 22.44 57.544 23.272C57.544 24.2 57.288 25.04 56.776 25.792C56.28 26.544 55.568 27.144 54.64 27.592C53.712 28.024 52.64 28.24 51.424 28.24C49.808 28.24 48.208 27.92 46.624 27.28L47.176 23.8L47.584 23.56C48.256 24.12 48.984 24.56 49.768 24.88C50.568 25.184 51.256 25.336 51.832 25.336C52.44 25.336 52.896 25.2 53.2 24.928C53.52 24.656 53.68 24.336 53.68 23.968C53.68 23.536 53.48 23.176 53.08 22.888C52.68 22.6 52.056 22.264 51.208 21.88C50.344 21.48 49.632 21.112 49.072 20.776C48.528 20.424 48.056 19.96 47.656 19.384C47.256 18.808 47.056 18.104 47.056 17.272C47.056 16.328 47.304 15.48 47.8 14.728C48.312 13.96 49.016 13.36 49.912 12.928C50.824 12.496 51.864 12.28 53.032 12.28Z" fill="#0011AA"/>
<path d="M68.6264 25.096L68.8424 25.336L68.6024 28H59.7944L59.9624 24.424L59.7944 15.808H68.7224L68.9384 16.072L68.6984 18.712L65.5304 18.592H63.3944L63.3464 20.464H65.4104L67.4984 20.392L67.6904 20.656L67.4744 23.32L65.1704 23.248L63.2744 23.272L63.2504 24.064L63.2984 25.216H65.3144L68.6264 25.096Z" fill="#0011AA"/>
<path d="M76.3088 15.616C77.5088 15.616 78.6128 15.792 79.6208 16.144L78.9968 19.096L78.7328 19.24C78.3808 19.032 77.9648 18.864 77.4848 18.736C77.0208 18.608 76.5648 18.544 76.1168 18.544C75.2528 18.544 74.6128 18.784 74.1968 19.264C73.7808 19.744 73.5728 20.528 73.5728 21.616C73.5728 22.848 73.7968 23.76 74.2448 24.352C74.7088 24.928 75.4048 25.216 76.3328 25.216C76.7648 25.216 77.2208 25.168 77.7008 25.072C78.1968 24.976 78.6288 24.848 78.9968 24.688L79.3088 24.88L78.9968 27.808C78.0848 28.08 77.1088 28.216 76.0688 28.216C74.0048 28.216 72.4368 27.688 71.3648 26.632C70.3088 25.56 69.7808 24.024 69.7808 22.024C69.7808 19.976 70.3488 18.4 71.4848 17.296C72.6208 16.176 74.2288 15.616 76.3088 15.616Z" fill="#0011AA"/>
<path d="M92.057 22L92.033 23.92C92.033 25.296 91.553 26.36 90.593 27.112C89.633 27.848 88.265 28.216 86.489 28.216C84.777 28.216 83.465 27.848 82.553 27.112C81.657 26.36 81.225 25.296 81.257 23.92L81.305 21.976L81.209 15.808H84.809L84.641 23.416C84.625 24.088 84.777 24.576 85.097 24.88C85.433 25.184 85.953 25.336 86.657 25.336C87.361 25.336 87.873 25.184 88.193 24.88C88.529 24.576 88.689 24.088 88.673 23.416L88.505 15.808H92.177L92.057 22Z" fill="#0011AA"/>
<path d="M103.014 23.224C103.766 24.36 104.734 25.672 105.918 27.16L105.87 27.568C104.638 27.936 103.47 28.152 102.366 28.216L101.862 27.856C101.19 26.624 100.574 25.432 100.014 24.28H98.4301L98.5741 28H94.9741L95.1421 24.424L94.9741 15.808L100.758 15.784C102.182 15.784 103.278 16.112 104.046 16.768C104.814 17.408 105.198 18.328 105.198 19.528C105.198 20.264 105.006 20.952 104.622 21.592C104.238 22.232 103.702 22.776 103.014 23.224ZM101.382 19.888C101.382 19.36 101.23 18.976 100.926 18.736C100.638 18.496 100.166 18.36 99.5101 18.328L98.5741 18.4L98.5021 21.616L100.11 21.712C100.558 21.552 100.878 21.328 101.07 21.04C101.278 20.736 101.382 20.352 101.382 19.888Z" fill="#0011AA"/>
<path d="M111.344 24.064L111.488 28H107.888L108.056 24.424L107.888 15.808H111.56L111.344 24.064Z" fill="#0011AA"/>
<path d="M123.54 16.072L123.324 18.76L120.78 18.616H120.348L120.252 24.064L120.396 28H116.796L116.964 24.424L116.868 18.616H116.436L113.844 18.76L113.604 18.496L113.82 15.808H123.348L123.54 16.072Z" fill="#0011AA"/>
<path d="M128.875 24.064L129.019 28H125.419L125.587 24.424L125.419 15.808H129.091L128.875 24.064Z" fill="#0011AA"/>
<path d="M140.949 19.864L145.797 28H141.141L140.373 26.32L138.309 22.912L135.933 26.512L135.213 28H131.229L136.029 20.44L131.181 12.52H135.861L136.629 14.224L138.621 17.464L140.733 14.056L141.429 12.52H145.509L140.949 19.864Z" fill="#0011AA"/>
<defs>
<clipPath id="clip0">
<rect width="40" height="40" fill="white"/>
</clipPath>
</defs>
</svg>
