<svg width="174" height="151" viewBox="0 0 174 151" fill="none" xmlns="http://www.w3.org/2000/svg">
<rect x="45.915" y="-59.5054" width="266" height="31" transform="rotate(45 45.915 -59.5054)" fill="#FFCE46"/>
<path d="M102.791 26.2775L106.037 19.0052L106.005 18.9727C105.626 19.4273 105.15 19.9413 104.576 20.5148L100.802 24.289L100.165 23.6518L106.098 17.7188L107.137 18.7577L104.122 25.5308L104.154 25.5632L110.943 22.5642L111.974 23.595L106.041 29.5281L105.351 28.8382L109.174 25.0154C109.612 24.5771 110.107 24.1199 110.659 23.6437L110.627 23.6113L103.347 26.8335L102.791 26.2775ZM113.638 32.6691C112.913 33.3942 112.164 33.7784 111.39 33.8217C110.619 33.8623 109.911 33.5606 109.267 32.9167C108.87 32.519 108.61 32.0726 108.488 31.5775C108.367 31.0824 108.396 30.5765 108.578 30.0597C108.759 29.543 109.083 29.0506 109.552 28.5825C110.277 27.8575 111.022 27.4747 111.788 27.4341C112.556 27.3908 113.262 27.6911 113.906 28.335C114.528 28.9572 114.815 29.658 114.766 30.4371C114.72 31.219 114.344 31.963 113.638 32.6691ZM110.25 29.2806C109.681 29.8487 109.362 30.3952 109.292 30.9201C109.221 31.4449 109.407 31.9278 109.848 32.3688C110.289 32.8098 110.77 32.9965 111.292 32.9289C111.82 32.8612 112.369 32.542 112.94 31.9711C113.506 31.4057 113.819 30.8619 113.882 30.3397C113.949 29.8176 113.76 29.3333 113.313 28.8869C112.872 28.4459 112.395 28.2579 111.881 28.3228C111.367 28.3877 110.823 28.707 110.25 29.2806ZM116.678 37.7378C116.264 38.1518 115.79 38.3168 115.257 38.2329C114.724 38.1491 114.179 37.8285 113.622 37.2711C113.032 36.6813 112.666 36.1281 112.522 35.6113L113.147 34.9864C113.253 35.3083 113.396 35.6222 113.577 35.9279C113.761 36.2363 113.967 36.5041 114.194 36.7314C114.546 37.0831 114.872 37.2982 115.172 37.3767C115.475 37.4524 115.742 37.3753 115.972 37.1453C116.145 36.9722 116.216 36.749 116.187 36.4757C116.162 36.2025 116.016 35.7642 115.748 35.1609C115.489 34.5927 115.328 34.1639 115.265 33.8744C115.209 33.5849 115.21 33.3239 115.27 33.0912C115.332 32.8612 115.464 32.6448 115.667 32.4419C116.03 32.0794 116.463 31.9414 116.966 32.0279C117.472 32.1118 117.982 32.4108 118.496 32.9248C118.975 33.4037 119.345 33.9691 119.608 34.6211L118.82 34.9296C118.558 34.2992 118.246 33.8027 117.883 33.4402C117.564 33.121 117.273 32.9302 117.01 32.868C116.748 32.8058 116.529 32.8626 116.353 33.0384C116.234 33.1575 116.162 33.2887 116.138 33.4321C116.116 33.5782 116.135 33.7567 116.195 33.9678C116.254 34.1788 116.404 34.5481 116.645 35.0757C116.981 35.7953 117.143 36.3445 117.132 36.7233C117.124 37.1048 116.973 37.4429 116.678 37.7378ZM118.475 41.0128C118.595 41.1318 118.718 41.2387 118.845 41.3334C118.975 41.4254 119.082 41.4944 119.165 41.5404L118.65 42.0558C118.542 42.0179 118.405 41.9381 118.24 41.8163C118.075 41.7 117.936 41.585 117.822 41.4714C116.962 40.611 116.985 39.7277 117.891 38.8214L120.537 36.1754L119.9 35.5383L120.225 35.2136L121.142 35.5708L122.375 34.9052L122.765 35.2948L121.734 36.3256L123.025 37.6161L122.501 38.1396L121.211 36.8491L118.593 39.4666C118.325 39.7345 118.183 40.0037 118.167 40.2742C118.151 40.5447 118.254 40.7909 118.475 41.0128ZM129.729 44.8072C129.128 45.4078 128.46 45.6648 127.724 45.5783C126.994 45.4917 126.247 45.0669 125.484 44.304L124.786 43.606L122.453 45.9394L121.763 45.2496L127.696 39.3165L129.234 40.8545C130.716 42.3371 130.881 43.6547 129.729 44.8072ZM125.379 43.0135L125.999 43.6344C126.611 44.2458 127.152 44.5894 127.623 44.6652C128.093 44.7409 128.547 44.561 128.982 44.1254C129.374 43.7331 129.538 43.3124 129.473 42.8633C129.408 42.4142 129.104 41.9178 128.56 41.374L127.789 40.6029L125.379 43.0135ZM132.736 51.767C132.011 52.4921 131.262 52.8763 130.488 52.9195C129.717 52.9601 129.009 52.6585 128.365 52.0146C127.968 51.6169 127.708 51.1705 127.586 50.6754C127.464 50.1803 127.494 49.6743 127.675 49.1576C127.857 48.6408 128.181 48.1485 128.649 47.6804C129.374 46.9553 130.12 46.5725 130.885 46.5319C131.654 46.4887 132.36 46.789 133.004 47.4329C133.626 48.0551 133.913 48.7558 133.864 49.535C133.818 50.3169 133.442 51.0609 132.736 51.767ZM129.347 48.3784C128.779 48.9466 128.46 49.4931 128.39 50.0179C128.319 50.5428 128.505 51.0257 128.946 51.4667C129.387 51.9077 129.868 52.0944 130.39 52.0267C130.918 51.9591 131.467 51.6399 132.038 51.069C132.603 50.5036 132.917 49.9598 132.98 49.4376C133.047 48.9155 132.858 48.4312 132.411 47.9848C131.97 47.5438 131.493 47.3558 130.979 47.4207C130.465 47.4856 129.921 47.8049 129.347 48.3784ZM133.682 57.3308C133.392 57.0413 133.18 56.7234 133.044 56.3771C132.915 56.0308 132.879 55.6656 132.939 55.2814L132.89 55.2327C132.663 55.5249 132.433 55.7873 132.2 56.02L130.37 57.8502L129.696 57.1766L136.141 50.7322L136.689 51.28L136.173 51.9821L136.206 52.0146C136.622 51.9442 137 51.9699 137.338 52.0917C137.676 52.2134 137.994 52.4231 138.292 52.7207C138.881 53.3105 139.134 53.9666 139.051 54.6889C138.969 55.414 138.565 56.1404 137.837 56.8682C137.107 57.5986 136.375 58.0031 135.642 58.0816C134.914 58.16 134.261 57.9098 133.682 57.3308ZM137.622 53.1955C137.168 52.741 136.713 52.5381 136.259 52.5868C135.804 52.6355 135.299 52.9317 134.745 53.4755L134.595 53.6257C133.97 54.2506 133.626 54.8025 133.564 55.2814C133.504 55.7576 133.705 56.2256 134.165 56.6855C134.549 57.0697 135.005 57.2145 135.532 57.1198C136.062 57.0278 136.601 56.7085 137.147 56.162C137.702 55.6074 138.017 55.0731 138.093 54.5591C138.174 54.045 138.017 53.5905 137.622 53.1955ZM141.871 56.4623L138.986 59.3477C138.623 59.7103 138.435 60.0633 138.422 60.4069C138.408 60.7505 138.577 61.0982 138.929 61.4499C139.394 61.9152 139.861 62.1276 140.329 62.087C140.8 62.0491 141.323 61.7421 141.899 61.1658L144.237 58.8283L144.911 59.5019L140.463 63.9497L139.907 63.3937L140.406 62.6998L140.37 62.6633C140.012 62.7444 139.653 62.7201 139.29 62.5902C138.93 62.4631 138.593 62.2426 138.28 61.9287C137.738 61.3876 137.461 60.8533 137.448 60.3257C137.437 59.8009 137.714 59.2557 138.28 58.6903L141.189 55.7806L141.871 56.4623ZM142.569 66.0559L141.895 65.3823L148.21 59.0677L148.884 59.7414L142.569 66.0559ZM146.733 70.2196L147.232 69.4526L147.199 69.4202C146.699 69.477 146.288 69.4445 145.966 69.3228C145.649 69.201 145.326 68.9751 144.996 68.645C144.555 68.2041 144.322 67.7441 144.298 67.2653C144.276 66.7891 144.475 66.3413 144.894 65.922C145.793 65.0238 146.982 65.2713 148.462 66.6646L149.241 67.3951L149.517 67.1192C149.866 66.7702 150.047 66.4374 150.06 66.1208C150.079 65.8043 149.924 65.481 149.594 65.1509C149.223 64.7803 148.69 64.4746 147.995 64.2338L148.303 63.5114C148.641 63.6115 148.974 63.7576 149.302 63.9497C149.632 64.1445 149.928 64.3731 150.19 64.6356C150.721 65.1658 150.995 65.6758 151.014 66.1655C151.036 66.6579 150.787 67.1638 150.267 67.6833L147.232 70.7188L146.733 70.2196ZM145.686 68.223C146.105 68.6423 146.549 68.8561 147.017 68.8642C147.488 68.875 147.93 68.6735 148.344 68.2595L148.746 67.8578L148.044 67.2125C147.489 66.6958 147.018 66.3927 146.631 66.3035C146.25 66.2142 145.904 66.3251 145.592 66.6362C145.349 66.8797 145.237 67.1381 145.256 67.4114C145.277 67.6873 145.421 67.9579 145.686 68.223ZM155.182 69.6109C155.379 69.8084 155.54 70.0018 155.665 70.1912L154.947 70.7228C154.803 70.4983 154.661 70.3157 154.52 70.175C154.161 69.8152 153.706 69.6528 153.157 69.688C152.61 69.7259 152.119 69.9626 151.684 70.3982L149.298 72.7844L148.624 72.1107L153.072 67.663L153.628 68.2189L152.881 69.1199L152.913 69.1523C153.368 69.0279 153.79 69.0035 154.18 69.0793C154.569 69.155 154.903 69.3322 155.182 69.6109Z" fill="#222222"/>
</svg>
