<svg width="40" height="40" viewBox="0 0 40 40" fill="none" xmlns="http://www.w3.org/2000/svg">
<path d="M12.8022 18.4362C11.817 18.1526 10.8318 18.0086 9.87348 18.0086C8.39362 18.0086 7.15879 18.3468 6.2013 18.761C7.12438 15.3816 9.34187 9.55063 13.7592 8.89397C14.1683 8.83313 14.5036 8.53732 14.6152 8.13914L15.5806 4.68594C15.662 4.39391 15.6138 4.08132 15.4472 3.82789C15.2806 3.57446 15.0129 3.40536 14.7129 3.36425C14.3869 3.31977 14.0546 3.29711 13.7252 3.29711C8.42299 3.29711 3.17192 8.83145 0.956109 16.7558C-0.344595 21.4048 -0.725995 28.3942 2.47793 32.7936C4.27081 35.2553 6.88648 36.5699 10.2524 36.7012C10.2662 36.7016 10.2796 36.702 10.2935 36.702C14.4465 36.702 18.1292 33.9051 19.2495 29.901C19.9187 27.5072 19.6162 24.9969 18.3969 22.8305C17.1906 20.6885 15.2039 19.1273 12.8022 18.4362Z" fill="#0011AA"/>
<path d="M38.7988 22.8309C37.5925 20.6885 35.6058 19.1273 33.2041 18.4362C32.219 18.1526 31.2338 18.0086 30.2759 18.0086C28.796 18.0086 27.5608 18.3468 26.6033 18.761C27.5263 15.3816 29.7438 9.55063 34.1616 8.89397C34.5707 8.83313 34.9055 8.53732 35.0176 8.13914L35.983 4.68594C36.0644 4.39391 36.0162 4.08132 35.8496 3.82789C35.6834 3.57446 35.4157 3.40536 35.1153 3.36425C34.7897 3.31977 34.4574 3.29711 34.1276 3.29711C28.8254 3.29711 23.5743 8.83145 21.3581 16.7558C20.0578 21.4048 19.6764 28.3942 22.8807 32.7944C24.6732 35.2557 27.2893 36.5707 30.6547 36.7016C30.6686 36.702 30.682 36.7025 30.6963 36.7025C34.8489 36.7025 38.532 33.9055 39.6523 29.9014C40.3207 27.5077 40.0177 24.9969 38.7988 22.8309Z" fill="#0011AA"/>
</svg>
